<svg id="Layer_1" xmlns="http://www.w3.org/2000/svg" viewBox="0 0 200 200"><style>.st0{fill:#8fb2cc}</style><path id="US-AK_1_" class="st0" d="M150.6 68.5V131.5l.8.3.8.3.2-.5.8.4.7.4.5-.4.5-.5h1.9v.4l-.2.7-.2.6.4.5v.1l.6.3.5.3.2.8.6.6.4.5.4.4.6.6.4.4.6.6.3.3.2.7.2.8-.1.5.3.1.5-.5.5-.3.6-.4.4-.3h.8l.3-.8v-1.1h.4l.2-.2.1-.3-.3-.4.7-.2.5-.2.7-.4.7-.4.4.3.4.3.7.7.1.2v.3l-.1.3.5 1 .1.1.3.1.4.3.2.3.6.4.1.2.1.3.1.3.1.2.1.3.3.3.5.3.4.2.5.3.5.7.5.6.5.6v.5l.5.7.6.9.4.8.3.4.4.6.5.8.5.9.4.6.5.8.3.5-.1.3-.2.4.6.1.4.1-.1.5-.1.6.5.2.3.1v.3l.2.3.1.6.6-.1h.3l.4.2.5.3.5.3.4.2.5.1.7.2.4.4.6.1.3.6.7.2.4-.2.2.3.1.3.1.4v.4l-.1.3-.1.4-.1.4v.4l.1.4.1.4.3.7.1.4v.3l-.4 1-.1.5v.2l-.3.5-.6.7-.3.4-.2-.1h-.8l-.4-.8-.2-.7-.3-.6v-.1l.2-.4.8-.4v-.1l-.3-.1-.1-.1-.1-.6v-.6l-.1-.4-.2-.8-.2-.4-.6-.9-.1-.2.2-.3.1-.3-.8.5-1.2.6-.5.4-.1.1v.1l.1.3v.1l-.1.2-.1.6-.2.6-.1.1-.5-.2-.1-.2-.3-.7v-.2l.2-.2.2-.4.3-.6.4-1.5h.4l.6-.3-1-.1-.2-.1-.2-.2-.1-.3-.2-.3-.4-.1-.2-.1-.3-.4-.2-.2-.1-.2v-.3l-.1-.1h-.3l-.2-.1-.1-.7-.5-.1-.2-.1-.4-.4-.1-.2V152.1l-.3.1-1.9-.7v-1l-.4-1.3-.4-.5.1-.2.1-.1h.2l.7.4.7.4.1-.1-1.1-.9-.3-.3-.1-.4v-.2l.1-.1h1l.1-.1-1-.2h-.2l-.2.4-.1.1h-.2l-.1-.1-.3-.5-.3-.3-.5-.5-.1-.3-.1-.5v-.5l.3-1.1.1-.2v-.1h-.1l-.1.1-.3.5-.3.9-.2.3-.2-.1-.3-.3-.5-.4-.6-.1-.4-.4-.6-1.2-1.1-1.6-.1-.1-.3-.2-.2-.3-.3-1.5-.4-1-.1-.5v-.5l-.1-.1-.1.4v.2l-.2.1.2.4.1.2h-.1l-.2.1.4.7.2 1.1.3.8.2.7.1.5.1.5.3 1.1.1.2v.2l-.1.2-.2.1-.5-.1-.2-.3-.3-.5-.4-.2-1 .2h-.1v-.4l.1-.7-.1-.3-.5-1v-.2l.7-.5h-.3l-.3.2-.1-.1-.2-.7-.1-.2-.1-.1v.6l.1.3v.5l-.1.2-.1.1h-.1l-.2-.1-.3-.2-.2-.1-.1-.1-.1-.3-.2-.2-.9-.2-.5-.3v.1l.2.3v.2l-.1.1-.2.3h.1l.2-.1h.3l.5.2.4.2.2.1.1.2.1.1.4.2v.1l-.7.4.5-.1.3.1.4.6.1.3v.4l-.1.1-.2.1-1.1.2-.4.5h-.1l-.3-.1-.6-.4-.7-.4-1.6-1.1V141.9l-.1-.1-.2-.1-.3-.3-.4-.5-.2-.4-.1-.3-.2-.3-.7-.7-.4-.3-.3-.1h-.3l-.1-.1.1-.1v-.1l-.6-.1-.6-.3-1.5-.9-.8-.6-.4-.3-.2-.2-.1-.1.1-.1.3-.1.2-.1.3-.6v-.2l-.2-.4-.1-.4v-.4l.1-.1.1-.1.1-.1h.1l.4.5.1.2v.7l.1.8v-1.1l.1-.2.1-.1.4.1h.2l-.8-.4-.5-.7-.1-.1h-.3l-.3.3-.8.9-.2.2-1 .5-.7.1-.7-.1-.6-.2-1.6-.8-.2-.2.4-.5v-.2l-.1-.5-.1-.1-.1-.1V133l-.1.1-.3.2-.5.1-1.4-.4-1.4-.4-1.3-.1-1.8.2-1 .2h-.6l-.5-.1v-.2l.3-.1v-.1l-.3-.4-.5-.3-.6-.1-.4-.1-.1-.2-.2-.2-.3-.2-.1-.3.2-.8.2-.5.1-.3.3-.5h-.1l-.5.4-.4.4-.4.5-.2.2-.3.2-.4-.1-.5-.4-.5-.2h-.4l-.2-.1.3-.3.2-.2.2-.4.1-.2-1.5-.2v-.5l-.2-.1h-.3l-.5.2-.2-.2.1-.1.2-.1.4-.3h-.1l-.2-.2-.1-.2.1-.6.1-.4 1-.3-.3-.2h-.6l-.4.3-.5.4-.3.1-.2-.1-.2-.1h-.3l-.2.1-.1.2-.1.1-.1.1h-.1l-.1-.2-.3-.2-.1-.2-.1.1-.1.3-.1.1-.5.1-.3-.1-.3-.4v-.1l.1-.3.8-1.2h-.1l-.2.2-.5.5-.2.1h-.3l-.2-.1h-.2l-.2.1-.2.1-.1.2.4-.2h.2v.1l-.3.6-.2.5-.2.1h-.5v.2l.5.5.2.1.2.2v.2l-.1.4-.1.2-.1.1-.4-.1h-.1l-.3.2-.2.2.3-.2.4-.1h.5l.3-.1.2-.2.2.1.2.3v.3l-.1.2-.2.1-.3.1-.2.1-.1.2-.1.3v1l-.1.1h-.2l-.1.1-.4.8-.1.1-.1-.1h-.1l-.1.1-.2.1h-.3l-.3-.1-.5-.2-.2-.2-.1-.2-.5.2-.1-.1-.2-.6h-.1l-.1.6-.1.2-.3.4-.2.8h-.1v-.1l-.1-.7-.1-.2-.3.4v.6l-.4.4-.5-.3h-.1l.1.4v.1l-.8.7-.2-.1-.1-.1h-.1l-.5.2h-.1l-.2-.2h-.1l-.1.2-.1.3-.2.3-.6.5-.2.2-.2.3h-.1l-.3-.3-.4-.2-.1.1.1.2v.1h-.4l-.2-.1h-.4l-.5.2-.4-.1-.5-.5-.1-.1v-.1l.2-.3.2-.3.1-.1.6-.3.6-.1.4-.2.5-.4.3-.3.6-.8v-.1l-.1-.1-1.1.7-.2.1h-.2l-.8-.4-.2-.2-.1-.4.3-.8.2-.4.5-.6.6-.6.2-.4.4-1.2.1-.6v-.7l.1-.4.1-.1 1.2-.5.6-.4 1.1-.6h.3l.2.3.2.2.3.2h.4l.5-.1.7.1 1.4.6.3.1v-.1l-.2-.3-1-.3-.4-.2-1.1-1-.2-.3.1-.1.3-.1.1-.1.1-.2.2-.3.3-.3.5-.3.9-.4-.3-.1h-.6l-.2.1-.4.3-.2.2-.3.5-.1.1h-.4l-1.1-.1-.2-.3-.1-.1h-.1l-1.1.5-.4.3-.3.3-.4.2-.6.1-.4.2-.5.4-.2.3v.7l-.1.1h-.3l-.5.3-1 .9-.2.3v.1l.1.3-.1.2-.3.2-.6.4-.4.1h-.2l-.2-.1-.4-.3-.3-.1.4.4.4.5.2.4.1.3v.3l-.1.3-.4.4-.3.1h-.8l-.3.1-.1.1.5.3v.1l-.1.4-.2.1-.5.2h-.4l-.1-.1.1-.3v-.1l-.1-.1-.2.1-.6.4-.1.1.2.2-.1.1-.3.3-.2.2-.2.2-1 .5v.2l-.3.6-.2.5.1.2.7.4.3.1.4.3.7.6.2.4v.2l-.1.2-.1.2-.3.4-.7.5-.3.1-.4.1-.1.1-.6.5-.2.3v.3l-.1.2-.7.3v.1l.2.1-.1.3-.1.5-.1.1-.4-.1-.6.1-.1.3h-1.4l-.4.6-.2.2-.6.4-.4.1h-.4l-.2.1-.1.2-.1.2-.4.2-.2.3h-.7l-.1.1-.2.5h-.1l-.2-.2h-.3l-.7.4-.2.2v.1l.1.1.1.4-.1.2-.4.6-.1.1-.3.1-.2.3-.3-.1H96l-.2.2-.2.1H95l-.3.1-.3.3-.3.2h-.4l-.2-.1h-.2l-.2.1-.2.2-.2.5-.2.2h-.1l-.2-.1-.3-.2h-.3l-.6.2-.2.2.3.1.2.1v.1h-.2l-.3-.1h-.2l-.2.1h-.6l-.2.1-.5.5-.1.1h.2l.3.2.1.2.1.2v.4l-.6.4-.2.2-.1.1-.1-.1.1-.6v-.1h-.1l-.2.2-.4.6-.4.3-2.4.4-.4.1-.1.4-.2.3-.2.2-.2.1v-.1l.2-.9v-.2l-.2-.2H84l-.3.1h-.1l-.2-.1-.3.1-.8.5-.5.1-.1.1-.3.3-.2.1H81l-.2-.2h-.2l-.2.2-.2.1-.4-.3-.2.1-.3.3-.3.1h-.3l-.7-.1-.3-.1v-.1l.1-.4.2-.3.1-.1.2-.1h.2l.4.2v-.1l-.1-.2-.3-.3-.3-.2H78l-.3.1-.2.1-.2.2-.3.6-.1.2-1.1.9-.4.3-.3-.1-.2.1-.3.2-.6.4-.2-.1-.1-.1-.1-.1v-.1l.2-.1v-.2l-.1-.4-.1-.2-.3-.1-.1.2-.1.9-.1.2-.3.2-.6.1-.1-.1-.3-.7-.4-.2-.1.2v.4l-.2.3-.4.2-.3.1-.2-.1.1-.2.3-.4.1-.4v-.3l.1-.2.1-.1.7-.3h.3l.1.1.2.1h.2l.2-.1.1-.2.3-.2.5-.2.7-.5.8-.7.8-.6.9-.4.9-.3 1.8-.3.1.1-.2.2.1.2.2.1h.6l.3-.1v.2l-.1.2-.4.1v.2l.4.8.1.1h.1l.1-.1.1-.5.2-.1.4.1.2.1.1.2.2.2.3.2h.2l.1-.1-.1-.2-.5-.6-.1-.2v-.3l.2-.3.3-.4.4-.6.4-.4.6-.4.4-.2 1.1-.6 1.9-.4.5-.4.7-.4.3-.1v.4l.3.2.2.1h.1l.1-.2v-.4l.1-.3.1-.3.1-.2.3-.4.5-.4.6-.5.4-.2.3-.1.3-.2.6-.5.2-.1.4-.1.1.1v.2l.1.1.3.2.3-.1v-.1l-.2-.1-.1-.1v-.4l-.2-.3v-.3l.1-.4.4-.9.2-1 .3-.5.4-.1h.8l-.4-.3H95l-.3-.2v-.6l.1-.4.3-.5.9-.7.9-.4-.1-.1-.1-.2.6-1.1.6-1-.7.8-.7.6-1.8.5-1.3.4h-.6l-.3-.2-.1-.7-.1-.3-.1-.5.2-.5.2-.3h.4l.4.3.3.1-.4-.5-.6-.5h-.3l-.3.5-.4.3-.2-.2-.1-.2v.5l-.3.6-.2.4v1.3l-.2.5-.6.1-.3-.5-.5-1.7-.2-.5-.5-.9-.3.1-.4.3h-.3l-.6-.7-.2-.5-.2-.6-.6.2-.5.2-.6.4-.3-.1-1 .2h-.1l-.2.2-.2.1-.2.4h-1.3l-1.2-.5.5-.1.5-.1.5-.4v-.7l.1-.3.1-.4.6-.5-.5-.1-.4.1-.2-.5.1-.9.5-.4.2-.3.3-.5.1-.5-.1-.8-.3-1.8v-1.3l-.4-.8.7-1 .7-.9.7-.3v-.1l-.3-.1h-.2l-.3.3-.3.2-.9 1.1-.6.5-.3.1.4.3v.7l-.3.5-.2.3-.5-.2-.6.5-1.2.2-1.5-.1-.7-.2-.6-.8.1-.3.1-.3-.8-1.3-.3-1.1-.4-.1-.3-.4-.3-.5.1-.3.1-.2-.2-.2-.3-.1-.4-.2 1.4-.9.6-.7h.3l.3.2.4.5.4.3.1.2.1.3-.3.4-.3.3h.2l.7-.4.5-.3.2.1.1.1.1.5.1.6.7-.3.5-.5-.2-.3-.3-.2-.8-.4.3-.1.5.2.3-.1-.2-.3-.2-.3-.9.4-1.3-.4-.8-.7-1-.2-.1-.1-.1-.3.7-.3.4-.2.2-.2-.2-.1h-.4l-.1-.3.1-.4h-.1l-.2.2-.2-.2-.1-.2.2-.2.3-.2-.1-.1H75l-.3.3v.3l-.1.4h-.3l-.2-.1-.1-.4.1-.9-.4-.4v-.5l.5-.4-.1-.3-.3-.2-.5.2-.1-.3.1-.3.1-.4h.1l.1.1h.8l.1-.1-.5-.5-.1-.4.3-.1.5.1h.7l-.2-.4v-.5l.3-.5 1.1-1 1-.8.3-.2h.4l.3.2.3.3.1-.1-.1-.1v-.5h.5l.4-.4.1-.1-.3.1-.4.3v-.4l.1-.8.3-.7.2-.3.3-.2.8.1.1.1.1-.1-.3-.6.3-.3.2-.1.9-.1.4.2.5.5.2.5-.1.2-.1.1-.2.1-.1.1v.1l.3-.2.5-.2.2.2.1.3.2.1h.7l.4-.1.6-.5.6-.2 1.1-1 .3-.4h.3l.2.1.1.4.2.2 1.4.2h.7l.6-.3.7-.5.4-.4.3-.5V100l.1-1.5-.7-1.5-.4-.4h-.3l.4-.5.6.2h.4l.4-.2.2-.2.3-.4.1-.5v-.3l-.2-.3-.2-.5-.2-.2H93l-1 .6-.5-.1-.3-.2-.4.4-.9.2-.6.3-1.1.8-.3.4-.2-.1.1-1-.8-1.1-.4.2.1.3.2.3.3.2-.2.2-.2.3-.2-.4-.5-.6-.6-.4-1.6-.4-1.2.2-.1-.1-.1-.1-.2.1-.1.2h-.4l-.4-.2-.8-.6-1.8-1-.4-.4-.2-.8.1-.4.2-.1.2-.6-.3-.3-.4-1.3-.2-.5h.1l.1.1.2.2.7.1.4-.5h.5l.4.2v-.2l-.1-.2-1-.6h-.2l-1.8-1.2-1.3-1.4-.1-.2v-.4l.3-.3.3-.1-.1.2v.2l1-.2.7-.5.9.2.3-.1.4-.3.6-.5.6-.1.5-.2h.5l.3.4.1.1.7.3h.3l.1-.1.1-.1-.6-.7.2-.3.2-.2 1-.3h.9l.3.1 1.2-.5.6-.1 1.1.2.9.2.2.3-.4-.2h-.2l.1.1.1.2-.1.2-.5.7-.1.6-.2.1-.3.2.7 1.1 1.4.4h.8l.4.4.3.2 1 .1.7.4h.3l1-1.1.3-.1.2.3.3.3.3-.1.1.4.1-.7-.1-.3-1-.8-.8.1-.2-.3.2-.5-.5-1.5-.1-.4-.4-.1-.1-.5v-.6l.4-.2h.3l.2.3.1.9.3.2-.3.8.2.8.7.9.7-.1.5.1.3.2.6.8.3.2h1.2l.2-.6v-.4L98 83l-.8-.1-.5-.6h-.5l-1.1.4-.4-.4-.1-.3-.4-.5.1-.7.6-.7.4-.3-.2-.3-.6-.4-1.1-.1v-.3l.1-.3-.6.4-.4-.2-.6-.1-1.2-.9-.3-.8-.1-.6v-1.5l-.2-1-2.5-3.7-1.2-1.2-.4-1-.4-.3-.4-.2-.4-.4.5-.2h.3l-.4.3.2.1.4-.1.2-.2.5-.9.7-1.4.1-.6 1.7.6 1.2.2h.4l1.5.2.4-.1.8-.3 1.1-.7 1-1 .2-.3v.1h.1l.2-.4.4-1.1.6-.9 2.1-2 .9-.8.3-.4.3-.3.1.3.1.1v.2h-.2l-.3.2-.4.1-.1.1h.2l.6-.1.4-.2 1.6-.1 1-.6.1-.2 1.5-.7.2.1.2.2-.5.6.2.2-.4.8.4.1v.4l.1-.3.1-.5.1-.4.1-.3.3.2.8-.2-.8-.2-.3-.8-.3-.1 1.2-.9 1-.5.2.1.1.1v.2l-.2.1-.2.2v.2l.1.1.4-.1.2-.2.9.2.3-.1.1-.1 1.1.2.2-.1.8-.4.8-.6.4-.3.7-.9.6-.6.8-.5.2.1-.3.1-.2.2.2.4 1.4 1 .4.1.1.5-.2.4-.5.4-.9.3.2.2.1.5.2.1.4-.1.4-.2.8-.8.3-.4.2-.1.5.2.3.3.3.5-.2.4-.2.2.4.4.5.2.4.3.7-.4h.5l.5.1.7-.2 1 .6.3-.1.4.1.4.3.1.3-.6.5-.2.6.1.3.3.1v.3l.2.1 1 .1-.1.1-.1.2-.4.4 1.7.5.3-.2h.4l.8-.2.3.2.3.4.3.1h.3l.7-.4.8.1.3.2h.3l1 .7.4.1.4.8h.3l.3-.3h.3l.2.3.4.1.1.5.2.2 1.5.5.8-.1 1.1.1.5.3h.6l.9.9.5.2.1.2 1.4.3.5-.4.9-.1.8-.3h.4l.5.1h.2l.1-.1 1.2.6.7.7.3.5 1.5.8.4.4.3.4.2.1.1-.1.5.1h.1zm-68.4 13l.3-.3.7-.2v.1l-.4.2-.6.2zM62.2 93v.2l.3.1.4.2.4.3.5.1.7-.3h.4l.4.1.3.2.3.4.1.2V95.4l.6.5.4.3.1.2v.2l.3.3.4.1.2.1.6.2.7.5-.3.6-.3.2-.7-.3-1-.2-.4.2-.4.3-.2.3-.2.1h-.2l-.1-.3.1-.7-.1-.2-.1-.2-.3-.3-.3-.3-.2-.1-.1-.3v-.4l-.1-.2-.2-.3-.2-.3-.7-.7-.3-.2-.3-.1-.4.1-.4.2-.2.3-.3-.1-.3-.2-.2-.4-.1-.2v-.4l.1-.3.2-.3.4-.7h.3l.4.6zm65.4 33.7h-.4l-.2-.1v-.1l.1-.3v-.1h.2l.2.2.1.2v.2zM51.2 111l.5.6.4.1.2.5v.3l-.4-.4-.7-.3-.6-1.2-.3-.3.3-.4.5-.1v.7l.1.5zm63.3 17.2h-.2l.2-.3.2-.6.2.1v.1l-.4.6v.1zm13.8 1v.2l-.1.2.1.3-.2.5-.1.3-.1.2-.1.1-.1-.1v-.1l.1-.2h-.2v-.4l.1-.1.1-.2v-.1l.2-.6h.1v.1l.2-.1v-.1.1zm4 .4l.1.2h.8l.1.1-.1.1-.2.1-.7.2-.6.3h-.1l-.1-.4-.1-.2V129.7l.1-.1.2-.2.2-.1.4.3zm3.9 1l-.1.2-.3-.1-.1-.1.5-.4.1.1-.1.3zm-65.4-12.3l.2.4.1.1.5.1.2.1.1.2v.2l-.1.4-.2.3-.1.4-.1.2.2.3v.4l-.1.4h-.6l-.5-.1-.5.1-.2.2v.3h-.2l-.1-.1-.2-.3-.2-.2-.8-.5-.9-1.1-.4-.3-.3-.7-.2-.8h.6l1.2.5.3-.4.2-.1h.4l.5-.2.2.1.1.2.4-.1h.5zm56.8 15l-.4.1-.1-.2.2-.4.2-.3.1-.1.5-.5.5-.3.5-.5.5-.8.1-.3h.2l.3.2.2.3-.1.2-1.2 1-.1.1-.1.4-.1.1-.1.1-.1.2-.1.3-.1.1h-.4l-.1.1-.3.2zm-.7-1.7l-.2.2-.6-.2.2-.4.5-.2.5.4-.4.2zm10.9 2.4h-.2l.3-.4.3-.4.3-.3.4-.1-.1.2-.5.4-.5.6zm-53.7-.1h-.3l-.2-.1v-.7h.2l.4-.3.8-.2h.2l-1.1 1.3zm27.2 5.9l-.3-.2-.1-.2.1-.1.5-.3h.2l.1.1v.2l-.1.2-.4.3zm.1.8l.1.1.2-.4h.1l.3.4h.2l.1.4.1.1h.2l-.1.4-.3.4-.1.1-.2-.1-.1-.1-.1-.2-.1-.2h-.1l-.3.2v.1l.1.2v.1h-.2l-.2-.1-.3.1-.1-.1v-.3h-.1l-.2.4-.2.2-.3.2-.1.1h-.2l-.3.1h-.2l-1-.6-.2-.2 1-.8.5-.3.3.1.2.2h.1l.1-.4-.2-.3v-.1l.6-.1.2.1.2.1.2.2h.4zm58.7 4.1l.9.1.6-.1.6.9.4.7.2.5.1.5.2.5v.1l-.3-.3-.3-.7-.1-.3-.1-.1-.1-.2-.3-.6v-.2l-.1-.2-.1-.1h-.1v.5l.1.5.7 1 .4.6.1.2.1.6-.2.3.2.5v.2l-.6.3-.5 1-.6.6-.3.1-.1-.1-.1-.2-.1-.3v-.4l.1-.2.2-1.2v-.4l-.4-.5-.2-.4-.1-.6-.3-1.6-.1-.5-.2-.4-.2-.3-.1-.4-.1-.4v-.2l.3.2.4.6.1.4zm1.2-.5v.2h-.5l-.5-.2-.2-.3v-.1l.4-.1.4.3.4.2zm-4.8.1l.5.6v.1l-.1.4-.3.1.1.2.2.1.1-.1.5-.6.2-.1h.1l.6.2.5.3.2.2.1.4-.1.9-.4.2h-.2l-.2-.1-.3.3.3.2h.9l.3.5.1.4-.2.7-.5-.2-.5-.4-1-.5h-.2l-.1.1v1l-.2.4-.7-.1-.3-.5-.3-.9-1-1-.3-.2-.4-.6.1-.5v-.3l.2-.1.3-.2.1-.5.3.4.4.4v-.3l.2-.3h.3l.2-.1.2-.3.3-.2zm-57.2-.6v.3h.1l.6-.3.3-.1h.3l.3.2v.2l-.3.3v.2l.2.4.6.3.1.1v.1l-.5.5-.2.1h-.1l-.7-.2-.6-.3-.3-.1h-.1l-.2.2.1.1.6.1.2.3.1.2v.2l-.1.1h-.6l-.4.2-.2.2h-.8l-.6.3-.2.1-.1.2-.2.1-.5.1.3.2V148.3l-.1.1-.5.6-.8.4-.2-.1-.1-.1-.1-.1v-.1l1.1-.9v-.1l-.2-.1-.4-.4-.3.1h-.1l.1-.2.2-.3v-.1l-.1-.1-.2-.1-.4-.1h-.3l-.2.1v.1h.4l.1.1.1.2v.4l-.1.2-.2.3-.3-.1-.4-.8-.1-1.1-.3-.9v-.2l.2-.5.6-.6.5-.1.4-.2H105.3l.3.2.1.3-.1.1v.1l.2.2.1.6.2.5.1.2.2.2-.2-.4-.1-.5.1-1v-.3h.1l.4.1v-.1l-.3-.4-.2-.3-.1-.2v-.2l.3-.2.1-.1h.1l.2.1.1.1.2.7.1.2h.1l.1-.1.1-.2.1-.1h.1l.3.1h.1l.1-.1v-.3l.1-.1.1-.2-.1-.3.2-.1.7.3.3.3-.2 1zm-1.1-.4l-.1.2-.1-.1-.2-.2-.3-.4-.1-.2v-.1l.1-.1.4.3.2.2.1.4zm61.1 6.5l.3.7.2.5.2.6.4 1.3.2.5.1.3.1.7v.2l-.1.1v.2l.1.5v.8l-.1.5-.1.1-.2-.1-.2-.2-.2-.3-.4-.8-.1-.4v-.5l.1-.1.2-.3v-.1l-.1.1-.3.1-.3-.3-.2-.1v-.5l-.1-.1-.4.2-.2-.1v-.5l.1-.2.4-.6v-.1h-.2l-.3-.2-.1-.7-.3-.4h-.2l-.3 1.1-.2.2-.5.2.1-.3v-.3l-.2-.8v-.3l.1-.2.4-.1.2-.1.1-.2v-.2l.3-.6.1-.1h.3l.8.6.2.1.3.2zM51.9 133.4l-.4.2-.3-.2V133.1l.9.1-.2.2zm56.4 14.6l-.5.1h-.1l-.3.4-.2.1-.2-.4.1-.5.3-.3 1.2.3.1.1v.1l-.1.1h-.3zm66.6 3.7l.2.2.1-.2h.2l.4.2.3.3.2.3V153.1l.1.4v.4l-.1.2h-.1l-.4-.4-.4-.7-.3-.2v.1l.1.2.3.4.1.2.2.3.1.2.1.3v.4l-.1.1-.1.1h-.6l-.3.2-.4-.1-.1-.1-.1-.2-.1-.5-.1-.7v-.5l-.3-.5-.2-.3-.6-.4-.2-.3v-.2l.3-.2h.5l1.3.4zm-2.1 1.1l.2.4.3-.1.2.3.2.5-.1.3-.1-.1-.1.2-.1.6.1.6v.6l-.2.6v.4l-.1.1h-.1l-.1-.1-.2-.1-.2.4h-.2l-.2-.8.1-1.3.4-.3-.2-.3-.5-.4v-.2l-.4-.6v-.8l.3-.5.4-.1.3.2.2.2.1.3zm4.4 1.7l-.5.1-.2-.1-.1-.3v-.2l.1-.2.1-.4.1-.6.7.6.2.3.1.4-.2.2-.3.2zM52.1 137.1l.4.3h.3l.2.1v.2l-.5.2-.1-.1-.3-.5v-.2zm51.5 14h-.2l-.2-.2.1-.2.4-.2.4.1V150.9l-.1.1-.4.1zm-1.7.2l-.3.1-.1-.1v-.1l.1-.2.1-.2.4-.3.4-.2h.2v.2l-.3.3-.5.5zm77.7 5.6v1h-.2l-.3.2h-.3l-.1-.1-.1-.1v-.3l-.2-.2h-.5l-.2-.1-.1-.3-.1-.4.1-.2.3-.1.2-.5.1-.1.4-1 .2.1.4.6.5.9-.1.6zm-2.4-.7h-.2l-.2-.1-.5-.5v-.1l.1-.2.3-.3.1-.1h.7l.2.1.1.1v.1l-.1.2v.2l.1.2-.1.2-.5.2zm-2.7-.4l.7.1.6-.1.2.2.2.3.1.2v.4l-.1.2v.1l1.2.5.6.6.2.3.1.3.3.7.6.8.3.2.2.2h-.1l-.4-.1-.8-.5h-.1v.3l-.1.3-.2.2h.1l.6-.2.5.5.2.1.2.4v.1l-.1.3-.1.1v.1h.1l.6-.1.1.1v1.1l.1.4V164.5l.1.2v.2l-.1.5-.1.1h-.2l-.2-.1-.3-.4-.3-.6-.1-.1-.4-.1-.1-.1h-.2l-.2-.3v-.3l-.2-.3v-.2l-.2-.1-.1.1.1.3-.1.3-.3-.1-.5-.8-.6-.7-.2-.2v-.2l.2-.1h.2v-.1l-.5-.6v-.2l.1-.3-.2-.1-.5.1-.2-.1-.2-.3-.1-.2h-.7l-.3-.3-.2-.2v-.1l.3-.2h.2l.3.2h.1l.3-.3v-.3l.2-.2-.1-.2-.2-.4-.3-.1-.6.3-.5.4-.2-.1.8-.2.5-.6.2-.3-.1-.2-.2-.2-.1-.6.2-.3zm9.3 4.6l-.1.7-.2.7-.3.4-.3-.1-.2-.3h-.4l-.1-.2.1-.3-.1-.2-.1.2-.2.2-.4.3-.2.5-.1.3-.2-.3-.2-.8v-.4l.3-.6.3-.5v-1.5l1.2-.9h.1l.5.5.5.8.1.3.1.6-.1.6zm-85.6-5.9l-.2.2-.3-.1-.1-.1v-.2l.5-.4.1-.1h.1v.2l-.1.5zm77.5 6.2l.1.2v.1l-.5.4v.1l-.1.3-.1.1-.2.3-.3.3v-.9l-.4-.5.3-.3.2.1h.4l.4-.3.2.1zM80 153.8h.2l.3-.3h.1v.1l-.2.3.1.5.1.3v.1l-.5.1-.3-.2h-.2l-.2.1-.1-.2.1-.8.1-.1.2-.2.3-.1.1.1.1.1v.1l-.2.1zm1.3.2l-.2.5-.4-.4-.1-.2.1-.1.6.2zm96.2 10.6h.2l.1-.2h.3l.2.1.1.1v.8l-.1.2-.1.3-.4-.1-.3-.3-.5-.5-.3-.4v-.2l-.2-.1-.3-.7-.2-.5h-.3l-.3-.1-.1-.3.1-.3.5-.2.7.6.1.3.3.3.1.5.1.2.3.5zm-94.9-9l-.2.1-.1.2h-.2l-.2.1-.6.5-.2.1.3-.5.1-.2v-.5l.1.1.1-.1.3-.3h.2l.3-.4h.1v.1l-.2.2.1.3.1.3zm100.2 7.4l.4.8v.3l-.3.1h-.3l-.1-.1v-.1l.1-.4-.2-.2-.2-.1-.2.2v-.4l.1-.3-.1-.4v-.4h.2l.4.3.2.7zm-99-7.2l-.1.5-.1.1-.1-.2-.2.1-.1-.1.1-.2v-.1h.1l.1-.2v-.1l.1-.2h.1l.1.4zm.3 1.2l-.2-.1-.1-.4v-.1l.2.2v.3l.1.1zM70 153.4l.1 1.1.1.2.2.2.3.2.1.2.1.3v.1l-.9-.7-.8.4H69l-1.7-.4h-.4l-.3.1-.5.4-.3.1-.2.1h-.5l-.5-.2-.3-.1-.1-.3v-.6l.1-.2.6-.2.2-.1.9-.9.2-.1h.2l.5.2.5-.2 1.1-.2h.2l.7.2.2.1.1.2.3.1zm3.8 1.9l-.3-.2-.1-.2v-.2l.6-.2h.1V154.8l-.3.5zm-1.6 2.4l-.3.1-.3-.2-.2-.3.1-.3.6.4.1.1v.2zm-10.8-1.4h-.2v-.1l.1-.3v-.4l.3-.1h.1v.1l.1.4.1.1.1.1h-.2l-.4.2zm-1.1.1l-.2.1H60l-.1-.1h-.4l-.1-.1-.1-.4v-.2l.1-.1.2-.1h.3l.2.1.3.5.2.3v.1l-.2.1-.1-.2zm-3 .2l.1.3.3-.1.3-.2.2-.3.1-.1.1.2.3.3-.4.3-.7.3-.3.3-.1.1.6.1.2.1.1.2-.2.1h-.3l-.3.2-.8.2-.3.3h-.3l-.4-.1h-.7l-.5.1-.1.1h-.1l-.2-.1h-.2l-.2.1h-.2l-.2-.1h-.2l-.1-.1-.3-.4-.1-.2.4-.2h.3l.4.1.5-.1.9-.1.3-.1.4-.6.2-.1.2-.2.4.1.1.3.1.1.1-.2.3-.1-.1-.2-.3-.3-.3-.2-.2-.1-.1-.1-.1-.2v-.2l.1-.2.2-.2.2-.2.2-.1.5.1H57.7l.1.1-.5 1.3zm1.1 1.5l-.1-.2v-.1l.1-.1.2-.2H58.9v.1l-.2.2-.2.1-.1.2zm-6.8.2l-1.3.3-.5.3-.4.3-.3.2h-.2l-.2.1-.5.2H48l-1.4.3h-.1l.1-.2.4-.1.3-.2.4-.3.2-.1.1-.2.2-.4.1-.1.3-.2.2-.1h.3l.5.2.2-.1.1-.1-.1-.1v-.2l.1-.3.2-.2.3-.2.4-.1h.5l.3.1.4.5v.2l-.2.2-.2.2v.1zm-7 .9l-.1.2-.1.1-.5-.3-.4-.1v-.2l.1-.1h.6l.2.1.1.2.1.1zm-4.1.2l-.3.1V159.2l.2-.1.5-.2.2.2v.1l-.1.1-.2.2-.2.1-.2-.1.1-.1zm-15-2.2l-2-.5-.2-.3h.3l.4.1h.8l1 .1h.8l.7.1.3-.2-.4-.4-.2-.1h.3l.3-.1h.6l.3.5v.2l-.1.2-.2.2h-.4l-.1.1.1.4h-.9l-1.4-.3zm8.3 1.7h-.3l-.2-.2.2-.2.2-.1.3-.1.3.2.1.3-.6.1zm-4.1-.7l.6.5.9.3.3.2v.1l-.6-.1-.2-.1-.5-.1-.3-.1-.7-.4-.6-.1-.1-.1-.1-.2-.1-.3v-.1h.2l.4.4.1-.1h.5l.2.2zm-8.9-2.8l-.2.1-.3-.3-.1-.2v-.2l.2-.2.3.1.3.3.1.2v.1l-.3.1zm-2.3 0l-.1.2.4.1.1.2-.2.4-.1.1h-.1l-.1-.1-.2.1-.9.1-.1-.4-.6.2.8-.9h.4l.2-.1.1-.3.4-.4.3.2.1.3-.1.1-.3.2zm-2.2-.1H16l-.5-.3-.3-.1-.4-.1h-.3v-.2l.1-.1 1.3.2h.3l.3-.1.3-.3.2-.1h.1l.1.2-.1.2-.2.1-.1.1-.5.5zm-2.7-.7l-.2.2h-.1l-.3-.5v-.1h.3l.1-.1v-.2l-.1-.3-.3-.4-.1-.3.1-.1h.2l.8.2.2.5.2.2.5.3h-.3l-.2.1-.4.4-.4.1zm6.8 1.9h-.3l-.3-.4.2-.3.3.4.1.3zm-1-.3l-.4.2-.1-.2.1-.5.2-.1.2.6z"/></svg>