<svg id="Layer_1" xmlns="http://www.w3.org/2000/svg" viewBox="0 0 200 200"><style>.st0{fill:#8fb2cc}</style><path id="US-AZ_1_" class="st0" d="M157.1 39.8l-1.2 8.5-1.2 8.5-1.2 8.5-1.2 8.6-1.2 8.6-1.2 8.6-1.2 8.6-1.2 8.6-1.2 8.6-1.2 8.6-1.2 8.6-1.2 8.6-1.2 8.6-1.2 8.6-1.2 8.6-1.2 8.6-4.7-.7-7.4-1.1-7.4-1.1-7.3-1.1-7.3-1.2-7.3-1.2-9.2-5.3-9.2-5.3-9.1-5.3-9.1-5.4-9-5.4-9-5.5L33 133l-8.9-5.6 1.3-1.2 2-3.3.1-.2 2.9.3 1.5-.6 1.1-1.5.5-1.7-.1-1.8-.9-1.5-1.8-1.2-.6-2.6.5-3.9.8-2 1.1-.1 1.2-.7L35 104l1-1.6.8-1.8.6-2.3.3-2.9 2.5-3.2 2.2-1.8 3.8-2 .9-.6.1-.6v-.1l-.5-1.1-2.6-2.5-1-1.6.1-1.2-.1-1.2L41 74l-.5-2.9.4-2v-.2l2.1-8.4-.5-3.2.1-1.7.8-2 .2-1.3-1.1-1.3.3-2 .4-2.5-.5-1.8V44l.9-1.6 1.1-.7 1.6-.3 1.7.1 1.9.6 1.3 1.1.7 1.5.8.9.9.2L55 45l1.6-2.1.4-.1 2.1-10.3 1.9-9.4 6 1.2 6 1.2 6 1.1 6 1.1 6 1.1 6 1.1 6 1.1 6 1.1 6 1 6 1 6 1 6 1 6 1 6 .9 6 .9 6.1.9z"/></svg>