<svg id="Layer_1" xmlns="http://www.w3.org/2000/svg" viewBox="0 0 200 200"><style>.st0{fill:#8fb2cc}</style><path id="US-AL_1_" class="st0" d="M117.5 22.5l1.1 3.9 1.1 3.9 1.1 3.9L122 38l1.1 3.9 1.1 3.9 1.1 3.9 1.1 3.9 1.1 3.9 1.1 3.9 1.1 3.9 1.2 3.9 1.2 3.9 1.2 3.9 1.2 3.9 1.2 3.9.9 1.7.9 2.8 4.7 8.2 1.5 3.5-.1 1.5.6 1.2 1.4.9-.1 1.2-1.5 1.6-.9 1.8-.4 3.1-.9 5.5.4 3.2 2.1 4.2.6 1.9v8.7l1.3 5.4 2 3.4-8.6 1-8.7 1-8.7 1-8.7.9-8.7.9-8.7.9-8.7.9-8.7.8-.2 2.3.4 2.1 1.1 1.9 4.3 3.5.4.9-.4 3 .3 2.1-.3 1.1-.9 1-.2 1.1-.6.4-2.7 3.5-10.3 2 .5-.8 2.2-.3 3-1.3-.8-1.7-1.4-1.8-1.1-.1-.8-1-.3-3.5-.9-2-1.9-2-.5.5-.9 3.7-.6 4.8-.4 1.6-3.1.4-2.8-.1-1.3.2-.5-6.5-.8-5.8-.8-5.8-.8-5.8-.8-5.8-.8-5.8-.8-5.8-.8-5.8.2-5.8.2-5.8.2-5.8.2-5.8.2-5.8.2-5.8.2-5.8.2-5.8.2-5.8.1-5.8.1-5.8.1-5.8.1-5.8.1-5.8.1-5.8.1-5.8v-2.8L52.6 29l-.5-.4-.3-.3.3-.1 4.1-.3 4.1-.3 4.1-.3 4.1-.3 4.1-.3 4.1-.3 4.1-.3 4.1-.4 4.1-.4 4.1-.4 4.1-.4 4.1-.4 4.1-.4 4.1-.4 4.1-.4 3.9-.4zM68.1 176.4l-2.3.9-3.5.2-.7-.2 1.4-.6 4.1-.9 1 .6z"/></svg>