<svg id="Layer_1" xmlns="http://www.w3.org/2000/svg" viewBox="0 0 200 200"><style>.st0{fill:#8fb2cc}</style><path id="US-AR_1_" class="st0" d="M177.9 57.9l-.1.7.8 1.5.1.9-.4.6-1.1.4-.8.4-.1.7v.3l.1.7.2.6-.5.9-3.5 2.4-1.4 2.9.8 3.4-1 3.5-2.9 3.7-1.1 4 .8 4.3-1.3 3.6-3.5 2.9-1.1 1.7v.1l.1 1.2.4.9-1.1 1.9-3 2-1.5 1.9-.1 1.8-.7.9-1.3.5-.6 2.7-.3 6.1-1.5 3.6-2.6 1-1.3 1.5-.1 1.9-1.5 2.3-2.8 2.6-1 2.1 1.1 2.1-.1.9-.9.8-3.2 1.2-.5.6-.3.6.7 1.1.5 1.7-.3 2.9-.7 1.2-.7 1.2-2.6 2.1-.7 1.6 1.3 1v1.2l-1.3 1.4.5 1.4.4.9 1.3.8.6 2.4-.7 3.1.3 2.5 1.6 2 .4.9-1.1 7 .1 1-6.4.4-5.9.3-5.9.3-5.9.3-5.9.3-5.9.3-5.9.2-5.9.2-5.9.2-5.9.2-5.9.2-5.9.2-5.9.2-5.9.2-5.9.2-5.9.1-.2-5.3-.2-5.3-.2-5.3-.2-5.3-1.7-.9-3-.4-1.5.3-1.9-.2-1.2.9-.8.2-.7-.2-.4-.8-1.4-.5-1.7-1.9V88.5l-.8-5.4-.8-5.4-.6-5.7-.8-5.4-.8-5.4-.8-5.4-.8-5.4-.7-5.4 8.7-.1 8.7-.2 8.7-.2 8.7-.2 8.7-.3 8.7-.3 8.7-.3 8.7-.3 8.7-.4 8.7-.4 8.7-.4 8.7-.4 8.7-.5 8.7-.5 8.7-.5 8.7-.5 1.6 2.9 1.5 1.9.3 1.4-.2 1.5-2.1 3.3-2 1.6-1 1.6-1.5 1.6-2.2 4.3 5.2-.4 5.2-.4 5.2-.4 6.1-.5z"/></svg>