<svg id="Layer_1" xmlns="http://www.w3.org/2000/svg" viewBox="0 0 200 200"><style>.st0{fill:#8fb2cc}</style><path id="US-CA_1_" class="st0" d="M108 28.3l-.8 2.9-.8 2.9-.8 2.9-.8 2.9-.8 2.9-.8 2.9-.8 2.9-.8 2.9-.8 2.9-.8 2.9-.8 2.9-.8 2.9-.4 2.3-.8 2.9-.8 2.9-.7 2.8 2.1 3.2 2.1 3.2 2.1 3.2 2.2 3.2 2.2 3.2 2.2 3.2 2.2 3.2 2.2 3.2 1.7 2.7 1.7 2.7 1.7 2.7 1.7 2.7 1.7 2.7 1.8 2.7 1.8 2.6 1.8 2.6 2.5 3.8 2.5 3.8 2.5 3.8 2.5 3.8 2.5 3.8 2.6 3.8 2.6 3.8 2.8 4-.3 1.3.3 1.9 1.4 3.6.1.8-.1.8.6 1 1.7 1.6.3.7-.1.4-.6.4-2.5 1.3-1.4 1.2-1.6 2-.2 1.9-.4 1.5-.5 1.2-.7 1-.8.9-.8.5-.7.1-.5 1.3-.3 2.5.4 1.7 1.2.8.6 1 .1 1.2-.3 1.1-.7 1-1 .4-1.9-.2-.1.1-1.5-.1-3.8-.5-3.8-.5-3.8-.5-3.8-.5-3.8-.5-3.8-.5-3.8-.5-3.8-.5v-.1l.3-1.7-.5-.7-.9.2.2-2.3.4-1 .1-1-.1-2.7-1.2-3.5-3.2-4.7-1.8-1.8-1.3-2-.9-.7-1.3-.4-.6.6-1.4-.9.7-1.7-.8-2.8-1.1-.6-3-.6-3.6-2.4-1-1.1v-1.5l-1.5-1.7-2.1-1.9-1.4-.1-1.7-.7-2.3-1.6-1.4-.5-3.3-.6-1-.5-.7-1.4-.9-.8.6-1.3.2-1.3.4-.9.1-2.2.9-1.8-.1-.8-.4-.7-1.7-1.3-.1-1.1.7-1.3-.2-1-1.3-1.3-.9-2.3-1.5-1.6-.2-2-.8-1.4-.1-1.1-1.5-4.1-1.8-3.4v-1.7l.5-2.1 1.4-1 .9-1 .2-1.1.1-.8-.5-1.7-3.2-1.8-1.8-4.2.6-2.6-.3-2.9.5-1.7.4-1.9.9-.1.7.4-.4.8-.1 1.4.6 1.2.7.7.5 1.2.5.5.6.2-.1-.7-.4-.6v-1.4l-.3-1.8-.7-1.1v-1.7l-.3-.5-.1-.7 1.1-.5L65 81l1.6.3 4.4 1.5 1.1-.1.7.4.6.1-1.1-.8-.7-.1-.8-.3-1.6-.4-.6-.4-.6-.7-.4-.2-1.6.7-.6-.3-1.3-1.4-.6-.3-1.2.2-.8 2.3-.2 1.8h-.7l-.6-1-1-.8-.8-.9-1-1.6-.6-.7-1.1.8.1-.5.8-1.1.5-2 .7 1.9v-1.2l-.6-1.4-.6-.6-.2-2.5-1.6-1.9-.9-2.6-2.2-4.5.7-3.1v-4.2l1.2-2 .4-1.6.2-2.5-.2-1.5-1.5-4.3-1.7-3.2.2-1.9.4-1.9 1.1-1.4 1-1.5.5-.3.1.2-.2.3.3.2.4-.7.3-.3-.4-.2.1-.2.4-.4 1.5-2 .8-2.8 1.9-3.2.3-1.1.3-2.6v-1.6l-.6-1.6.9-1.4.4-1.5-.1-.3 3.1 1 3 .9 3 .9 3 .9 3 .9 3 .9 3 .9 3 .9 3 .9 3 .9 3 .9 3 .9 3 .8 3 .8 3 .8 2.7.9zM76.9 149.5l2.4 1.5h1.5l.1.4-.3.3-3.3-.2-.9-.7.1-.6-.2-.6.6-.1zm-5.6-.7l-.7-.1-1-.4.4-.3.6-.1.1.2.6.7zm2.9 2.6h-1l-.6-.4-.7-1.8 2.3.4.8.9.1.2-.9.7zm19.6 13.8l.4 1.3-.9-.4-1-.2-.1-.7-.1-.9-.1-.3-.7-.2v-.5l.2-.1 1.9 1.5.4.5zm-14.7-1l-.6-.1-.8-.3-.2-.9.7.1.6.3.3.9zm12.5 9.6h-.8l-.8-.5-.3-1.7-.5-1.4.5-.2.4 1.3 1.2 2.1.3.4z"/></svg>