<svg id="Layer_1" xmlns="http://www.w3.org/2000/svg" viewBox="0 0 200 200"><style>.st0{fill:#8fb2cc}</style><path id="US-CO_1_" class="st0" d="M163.7 93.9l-.3 4.2-.3 4.2-.3 4.2-.3 4.2-.3 4.2-.3 4.2-.3 4.2-.3 4.2-.3 4.2-.3 4.2-.3 4.2-.3 4.2-.3 4.2-.3 4.2-.3 4.2-.3 4.2-4.4-.3-4.4-.3-4.4-.3-4.4-.3-6.7-.5-6.7-.6-6.7-.6-6.7-.6-6.7-.7-6.7-.7-6.7-.7-6.7-.7-6.7-.8-6.7-.8-6.7-.8-6.7-.8-6.7-.9-6.7-.9-6.7-.9-6.7-.9.8-5.5.8-5.5.8-5.5.8-5.5.8-5.5.8-5.5.8-5.5.8-5.5.8-5.5.8-5.5.8-5.5.8-5.5.8-5.5.8-5.5.8-5.5.8-5.5 5.2.8 5.2.7 5.2.7 5.2.7 5.2.7 5.2.7 5.2.6 5.3.6 5.3.6 6.1-.1 5.3.6 5.3.5 5.3.5 5.3.5 5.3.5 5.3.5 4.2.4 4.2.4 4.2.4 4.2.3 4.2.3 4.2.3 4.2.3 4.2.3-.2 2.8-.2 2.8-.2 2.8-.2 2.8-.2 2.8-.2 2.8-.2 2.8-.3 2.5z"/></svg>