<svg id="Layer_1" xmlns="http://www.w3.org/2000/svg" viewBox="0 0 200 200"><style>.st0{fill:#8fb2cc}</style><path id="US-CT_1_" class="st0" d="M153.8 46.2l1.4 5.2 2 7.2 1.5 5.3 2.1 7.2 2.3 8.2 2.2 7.6 1.8 6.7.9 4 1.3 6.1-1.2 2.8.6 5.8-6.5 1.2-10.1 4.3-13.1 7.1-8.2.1-7 5.6-26.6 8-6.2-.4-5.5 8.6-10.6 6.9-25.6 22.4-2.8 3.8-5.3-5.2-4.2-4.1 5-5.3 3.8-4.1 3.6-3.8 2.3-2.4-3.2-3.2-3.2-3.2-1.8-9.4-1.7-9.4-1.8-9.4-1.8-9.4-1.8-9.4-1.7-9.4-1.8-9.4-1.8-9.4 6.1-1.3 6.2-1.3 6.2-1.3 6.2-1.3 6.1-1.3 6.2-1.4 6.2-1.3 6.1-1.3.8 2.5 3-1.1-.1-2.3 8.6-2.1 8.7-2.2 8.7-2.2 8.6-2.2 8.6-2.2 8.7-2.2 8.6-2.2 8.6-2.2.6 1.7z"/></svg>