<svg id="Layer_1" xmlns="http://www.w3.org/2000/svg" viewBox="0 0 200 200"><style>.st0{fill:#8fb2cc}</style><path id="US-FL_1_" class="st0" d="M136.1 45.8l1.2 1.9 2.7 8 1.4 2.7 2.9 7.4 4 7 5.5 8.4 8.4 9.9 1.1 1.4-.6 1.5v1.4l.3 2.1.6 2 1.2 2.3 2.2 3.5-1-.6-3.1-5-.8-3.1-.5-4.6-.5.2-.2 1.5.1 1.8-.4.8-1.2-2.5-.2-1.2.6-1.5-.3-.5-1.4-.5-.5-1.1v-1.1l-.8-.5-.6.1.8 2.6.9 1.6 1.4 3.9 1.6 2.2 1.1 1.9 12.2 20.2 2.5 2.4 1.1 1.9 1.5 4 1.1 5.3.3 10 .9 6.7-.2-.2-.3-.7h-.3l-.7 3.3-1.2 3 .2 4.4-.4 2.3-2 2.7-1.5.2-3.4 2.3h-2.7l-2.9 1.5-2 .2-1.5-1.8v-.9l.3-1 .8-.3 3.1 1.7.4-1-1-.9-1.7-.3-1.3-.5-3.1-4.5-2.9-2.9-.8-2.2-4.3-.7-3.3-1.6-2.5-3.3-2.1-6.3-1.4-.5-.6-.4.9-2.6 1-2.2-1 .7-.7.9-.7 1.9-.7.4-.7-.2-1.3-3.3-.4-4.2.8-1.7-1.7.2-1.6.9.5 1.4-.1.8h-1.3l-1-.3-1.5-1.3-2.2-2.5-4.7-7.1-.9-1-1.3-1 .5-.4 1-.4 1.8-3.8 1.5-2.3.4-1.5-.2-.6-.9-.8-.9.9-.5-.2-1.4-1.6-1.2-.3-.7.5 1 1.3.8.4v2.2l-.2.7-.6.7-1.1-.2-.5.6-.7-.5-.8-.8-.9-1.5.6-9 .9-5.8-.7-6.4v-1l-.4-1.7-2.8-3.3-11.5-7.5-9.6-9.3-7.3-3-5 1.5-.8.9-.2 1.1.5 1.1-.4.5-1.4.1-2 .6-4.5 3.4-1.7.1-1.5.9-1.1.7-3 .7-2.5.9-1.2-.2-.9-1.5-.2-1.7.7 1.2 1 .9.4-.5v-.9l-1.1-1.6-3.2-1.9-3.7-2.9h1l.2-.7-1.1-.8.3-1.1.6-1.2-1.4.3-1.1.9.1 1-.2.8h-.7l-1.4-.8-6.5-2-5.6-.9 4.1-1.1 2.3.3-.4-.8-.6-.5-1.8-.5-2.2.5-1.5-.1-1.4.8-1.5 1.1-1.4.6-5.5 1.2-4.5 1.2.7-.9.7-.6 2.6-1 .2-1.6-.8-1.5-.7.4-.6 1.3-1-.8-1 .1-.1 1.9-1.2 1.4-.5 1.3-3.7 1.4-.5-.3 1-1.3-.2-.7-.8.4.1-.8.6-.8.2-.8-.2-1.5.3-2.2-.3-.6-3-2.5-.8-1.4L18 56l.1-1.6 6.2-.6 6.2-.6 6.2-.6 6.2-.7 6.2-.7 6.2-.7 6.2-.7 6.2-.8 1 1.7 2 3.5.2.8 1.8-.1 3.1-.2 3.1-.2 3.1-.2 3.1-.2 3.1-.2 3.1-.2 3.1-.2 3.1-.2 3.1-.2 3.1-.2 3.1-.2 3.1-.2 3.1-.2 3.1-.2 3.1-.2 3.1-.3.1.7.7 1.1.3 1.3.3.6.7.3h1l.9-.9.4-1.7-.1-1.8-.7-2-.2-1.8.3-1.1.5-.3.4-.6.4-.2 1.1.1 4.2.8 3.5-.3zM73.8 79.4l-1.9 1-2.2-.3 1.3-.3 1 .1 2.3-1.4 1.2-1 1.4-.5-3.1 2.4zm100.9 38.8l.6 1.6-2.5-3.5-3.3-5.6-2-4.4 1 1.1 1.2 2.4 5 8.4zm-35.3 22.5l.2 1.3-1.4-2-1.1-2.3 1.1.6 1.2 2.4zm1.3 2.1l-.6.7-1.5-.2-.9-.7-.6-1.5 1.5 1.4.5.3h1.6zm38.4 23.9l-3.3 4.9.3-1.1 1.2-2.5.3-1.2.9-.9.8-1.4-.2-1.4 1.3-1.2.4-.2-1.7 5zm-4.3 6.3l-.5.2.7-1.1h.2l-.4.9zm-3.5 2.9l-.4.1.1-.3.7-.8.3.2v.3l-.7.5zm-4.1 2.7l-.8.7-1-.2 1-.7 3.1-1.1-1.1.9-1.2.4zm-5.8 2.4l-.5.6-.3-.1-.1-.7-1.1-1.3v-.4l2.2 1.1.1.4-.3.4zm-4.6 2l-1.3.4.9-1.1.1-1.4.8 1 .1.6-.6.5zm-4.2 1.9l-.5.1-.1-.3.8-.6.6-.1.1.5-.9.4z"/></svg>