<svg id="Layer_1" xmlns="http://www.w3.org/2000/svg" viewBox="0 0 200 200"><style>.st0{fill:#8fb2cc}</style><path id="US-GA_1_" class="st0" d="M169.2 122.9l-.9 2.8-2.9 2.1-1 .1-.7.6.6 1.1.9.7.1.8-.7 1.2-1.6.6-.7 1.3.5 1.1.6.5.1 1.1-1.7 1.4-.3 1.1 1 .2.7-.4.6.1-.8 2-.8 1.3-.6 2.1-2.1.9.2.6 1.3.4 1.3 1.3-1.5 3.1h-1.3l-.9-.5-.1 2.3.4 1.1-.1 2.5-.3 3-.3 1.3.5 2.2.7 2.1-4.5.4-5.7-1.1-1.5-.2-.5.2-.6.9-.7.5-.4 1.5.3 2.4.9 2.7.2 2.5-.5 2.3-1.2 1.2-1.3.1-.9-.4-.4-.8-.4-1.8-.9-1.5-.2-1-4.2.4-4.2.3-4.2.3-4.5.1-4.2.3-4.2.3-4.2.3-4.2.3-4.2.3-4.2.3-4.2.3-4.2.3-4.2.3-4.2.3-4.2.2-4.2.2-2.5.1-.2-1.1-2.7-4.7-1.4-2.3-2-3.3-1.3-5.3v-8.5l-.5-1.9-2-4.1-.4-3.1.9-5.3.4-3 .9-1.8 1.5-1.6.1-1.2-1.3-.9-.6-1.2.1-1.5-1.5-3.4-4.6-8-.8-2.8-.8-1.7-1.1-3.8-1.1-3.8-1.1-3.8-1.1-3.8-1.4-3.6-1.1-3.8-1.1-3.8-1.1-3.8-1.1-3.8-1.1-3.8-1.1-3.8-1.1-3.8-1.1-3.8-1.2-3.6-1.1-3.8-1.1-3.8 8.1-.8 8.1-.9 8.1-.9 8.1-.9 7.5-1.1 7.5-1.1 7.5-1.1 7.5-1.2-.1.1-.9 2.2-3.5 4.3-.6 3.1 5.1 2.6 3.2 2.2 2.1.8h2l1.3.7 1 2 7.3 9.6 6.8 4.5 2.8 2.3 1.6 2.4 5.7 3.4 2.1 2 .4 1.7.8 1.1 1.2.5 1.3 1.4 1.4 2.2 2.4 1.7 3.3 1.3 2.9 3.6 2.4 6 2 3.4 2.5 1.1 3.9 4.8 1.5 3 .4 2.8 1.9 1.9 5.7 1.8zm-8.9 34.1v7.5l-.9-2.5-.4-2.5.6-1.6.7-.9z"/></svg>