<svg id="Layer_1" xmlns="http://www.w3.org/2000/svg" viewBox="0 0 200 200"><style>.st0{fill:#8fb2cc}</style><path id="US-HI_1_" class="st0" d="M83.3 51.3l-2.8-.3-.6-1.4-1.8-1.8v-1.5l-1.4-2.6.1-1.8 3.1-1.1 4.5.7 4.5 3.9-.2 2.2-.8 1.1-1.6.7-1.7 1.5-1.3.4zM65.4 39.5l-1.2.6-.6-.7.5-1 1.5-.8h2l2.6-.4.9 1.1-1.4.5-1 1-2-.6-1.3.3zm41.5 48.6l.6.7 1 .6-1.1 2 .3 1.8-.1.9-1.6-.3-2.4-1.5-.6-1.3-.2-2-1.4-.6.5-1V87l-1-.4-.2 1.7-2.1-1.6-.6-.8.5-1.7-.1-4.2.8-.9.2-1.7 3.3 2.2 3.8-.3 1.4.8-.3 5.1-.8.9-.2 1.3.3.7zm7.8 15l3.9 4.1 1.2.6.3 1.1 3.4 3.2.5.7-1.6.6-3.2-.8-2.6-3.6-5.4-4.8.9-.7 1-.2.9-1 .7.8zm10.2 18.4l.2.8 2.7 1.2 1.8 1 1.6 3.6.2 1.7.9 2.5v1.3l-1.2.6h-3.2l-3-1.7-2.1-.6-2-1.8-.4-.8 1.3-2.1 1-2.6-1.5-.8-.9-1.9-.2-3 .7-1.2 2.2-1 1.7 1 .4 1.8-.2 2zm-10.4-2.5l-1.7-.3-1.1-1.4.9-1.8.2-3 2.6 1.4.8 1.6.2 1.1v1.7l-1.9.7zm-3.9 60.7l-1.8.3-1.1-1-2.5-5.7.4-1.7 4.8-5.6 2-6 1-5 2.7-.9 2.8-.1 4-1.2 1.1-4.6 2-1.8 1.2.3 2.5 6 6.1 10.8.4 4.5-1.8 3.2 1.4 1.6-.7 2.6 1.1 3.6.1 1.6-2.2.9-6.7-.3-6.6-2.9-7.5-.3-2.7 1.7z"/></svg>