<svg id="Layer_1" xmlns="http://www.w3.org/2000/svg" viewBox="0 0 200 200"><style>.st0{fill:#8fb2cc}</style><path id="US-IL_1_" class="st0" d="M122.4 30.1l.4 4.4.6 3.6.8 1.6.8 1.1.9.7 1.1 2.3 1.4 3.9 1.2 2.5.9 1 .7 7.5.8 8.4.7 8.4.8 8.4.8 8.4.7 8.4.8 8.4.7 8v.1l-.9 1-.6 1.5.3 1.6-.2 1.2-.6.7.5 1.7 1.7 2.7 1.1 2.7.5 2.7-.1 2-1 1.9-.8 4-.8 1.6-1.2.6-.9 1.5-.7 2.4-.9 1.2h-1.1l-.8.5-.4 1 .2 1 .7 1-.1 1-1 1 .1.4.4.2-.1.4-.6.5-.3 1.3.2 2.1-.3 1.1-.7.1v.6l1.4 2.3-.6.6-1.1 2.1-.1 2.2 1 2.4-1.7 2.1-4.3 1.9-2.3 1.5-.4 1.5.5 1.7 1.1 2.3.3 1.6-.5 1-3.3-.3-6-1.7-3.9.4-1.8 2.4-.6 1.8.3 1.4-1.7-1.6-1.1-.7-.2.1-.2.2-.1.5.1.4.2.4-.1.3h-.2l-1.2-.6-1.5-1.8-1.9-3-.5-2.5.8-1.9-.1-1.9-1.1-2-.6-1.9-.1-1.9L94 167l-4.7-3.5-3.4-2.2-2.2-.8-2.6-1.8-3-2.8-1.6-2.2-.3-1.5 1-4.3 3.1-9.3.3-1.1.1-.4-.2-.4-.4-.4-1.6-1-3-.7-2.8-.3-2.1 1.2-2-2.1-1.9-5.4-4.3-5.6-6.7-5.7-3.9-3.9-1.1-2.1-1.1-3.2-1-4.3-.1-3.6 1-4.4 1.1-.5.2-1.4-.4-2.5 1.1-2 2.6-1.4 2.3-3 1.9-4.5.8-3.2-.3-1.9-.9-1.7-1.5-1.6-.4-2.1.6-2.6 2.2-1.7 3.9-.9 3.5-1.5 3.1-2 1.8-2.1.5-2.2.8-1.8 1.2-1.3.7-2 .3-2.8-.1-2-.5-1.4-1.5-1.4-2.5-1.6-1.4-1.5-.4-1.5-1.3-1.5-2.3-1.6-1.4-1.9 9.6-.5 9.4-.6 9.4-.6 9.4-.6 9.4-.7 9.4-.7 2.6-.3z"/></svg>