<svg id="Layer_1" xmlns="http://www.w3.org/2000/svg" viewBox="0 0 200 200"><style>.st0{fill:#8fb2cc}</style><path id="US-ID_1_" class="st0" d="M153.4 129.5l-.5 3-.5 3-.5 3-.5 3-.5 3-.5 3-.5 3-.5 3-.5 3-.5 3-.5 3-.5 3-.5 3-.5 3-.5 3-.5 3-2.7-.5-2.7-.5-2.7-.5-2.7-.5-2.7-.5-2.7-.5-2.7-.5-2.7-.5-2.7-.5-2.7-.5-2.7-.5-2.7-.5-2.7-.5-2.7-.5-2.7-.5-2.7-.5-5.3-1.1-5.3-1.1-5.3-1.1-5.3-1.1-5.3-1.2-5.3-1.2-5.3-1.2-5.3-1.2 1-4.2 1-4.2 1-4.2 1-4.2 1-4.2 1-4.2 1-4.2 1.1-4.7v-.1l1.5-2.7.5-1.3v-.8l.3-.7.7-.6.2-.8-.3-1-.9-.8-1.5-.6-.5-1.2.4-1.8 1.8-2.4 3.2-3.1 1.9-2.3.6-1.5 2.2-3.2 3.8-4.9 1.8-3.3-.2-1.7-.9-1.8-1.7-1.9-1-2 .2-1-.2-1.1.1-1.4.5-.7v-1.4l-.4-2-.1-1.4.2-.4.1-.2.7-3.1.7-3.1.7-3.1.7-3.1.7-3.1.7-3.1.7-3.1.7-3.1.7-3.1.7-3.1.7-3.1.7-3.1.7-3.1.7-3.1.7-3.1.7-3.1 4.1 1 5.4 1.2 3.1.7-1.1 4.8-1.1 4.8-1.1 4.8-1.1 4.8 1 2.2.8 1.4.6 1.8.7 1.6.1.5v1.5l-.5 1 .3 1.2-.2.5-.5.2-.1.1v.1l.1.2 1.2 1.3 1.1 1.7 1.6 1.4.4.7 1.7 3.3.8 2.1 1 1.6.3 1.6 1.1 1.6.2.7.1.2.2.1.9-.1.2.1.3.6-.1.8.2.4.5.3.6.2h1.9l.4.1.2.2v.2l-.2.7-.4.9-.8.9-.1.9-.9 2-.7 1.3-.3 1.4-.7.7.1 1-.5 1.4.1.4.5.8-.1 1.8-.2.3-1.3.4-.5.4-.3.6.1 1.9-.7.9-.2.9.1.2 1 .7 1.1 1.3.4.3h.3l.6-.2.8-.6 1.4-.5 1.8-1.2.2-.4.2-.2.2.1.4.3.8 1.1.7.7.1.1v.3l-.2.9.3.8-.1 1.2.2 1.3.1 1.5.9 2.1.4 1.4.6.7.3.8.2.9v.7l-.7 1.1v.5l.3.6 1 1.5.2.1 1.2.1.6.3.5.8.5 1.1.2 1-.1 1.2.4 1.4-.1 1.1.3.6.7.8.7.6.3.1.3-.1.2-.6.4-.4 1.1-.5.9.2 3.4 1.2h.3l.2-.2.8-.9.6-.3h.8l2.1.6 2.5.3 1.3.5 2-.1 2.1.7.3-.1.1-.2-.1-.4.1-.8.6-.8.3-.7.5-.4.6-.1.5.1.4.5.4.8.6 2 .4.8.5.7.8.9z"/></svg>