<svg id="Layer_1" xmlns="http://www.w3.org/2000/svg" viewBox="0 0 200 200"><style>.st0{fill:#8fb2cc}</style><path id="US-KY_1_" class="st0" d="M164.3 82.4l.6.6.8 3.8v.8l-.5 1.7.2.8.8 1.2 2.6 2.7.4 1.1 1 1 1 1.6 2.9 3.3 4.1 2.5 3 .4-6.9 7.5-3.2 2.8-3.2 2.4-.2.4-.5 2.1-1.8 2.1-1 2.1-2.9 2-1.9 2.5-5.3 2.9-3 1.2-2 1.5-.2.1-.2.1-.2.1-.2.1-.2.1-.2.1-.2.1-.2.1-7.3.7-7.3.7-7.3.7-7.3.6-7.3.6-7.3.6-7.3.6-7.3.5-7 .9-7 .8-7 .8-7 .8-.7-.8H55.7l1.1 2.6.2 2.3h-.1l-3.3.3-3.7.3-3.7.3-3.7.3-3.7.3-3.7.3-3.7.3-4.2.3.9-2.4.9-.7.4-.2 1.1.3.5.1 1.1-.9.8-2.4.4-2.5v-2.6l-.8-2.1-.3-1.3.5-1.6 1.7-2.2 3.6-.4 5.6 1.5 3 .3.5-.9-.3-1.5-1-2.1-.4-1.6.2-1.1 2.1-1.4 4-1.7 1.6-2-.9-2.2.1-2.1 1-2 .6-.5.4-.3 1 .2.7-.2.5-.7.1-1-.2-1.2.3-.3.4-.1 1.1.5 1.2.1 1.1-.5.8.3.4 1 .5.3.5-.5.2-1-.1-1.6.2-.3.2.2.4.5.9.1 1.2-.6 1.8.2 3.5 1.5 1.5 1.2.9-.5.9-1.8 1.4-1.5 2-1.2 2.1.2 2.2 1.6 1.6.2.9-1.2.4-1.3-.1-1.3.3-.9.7-.4.2-.7-.3-.9.5-.6 1.3-.3.2-.4-.2-.3v-.2h.4l.6.3.7.8.5 1.2 1.4 1.1 2.3.9h1.7l1.2-.9.9-2.1.7-3.4 1.2-2 1.6-.6 1.1-1.3.5-2.1 1.1-1.7 1.7-1.4.5-1.8-.7-2.2.7-1.3 2-.4 1.3.1.8.5.5.2h.3l.7-.3.8-.5 3.8-1.9 1.9-1.5.1-1.3-.5-.8-1-.2-.3-.5.5-.8-.1-.9-.6-1.1.3-1.2.3-.3 1-1 1.2-.2 1.1.8 1.4.1 1.7-.7 1.6.1 1.6.9 1.6 1.8 1.7 2.7 2.6 1.4 3.4.2 2.6.8 1.8 1.4 1.3.3 1.4-1.1 1.5-.7 1.7.3 2.3 1.1 3.1-.7 3.9-2.5 2.4-.3 1 2 2.1 2 3.1 1.9.6.1zM26.9 148.9l-1.5.2-.1-.3v-.7l.1-.3.3-.1h.3l.5.6.4.6z"/></svg>