<svg id="Layer_1" xmlns="http://www.w3.org/2000/svg" viewBox="0 0 200 200"><style>.st0{fill:#8fb2cc}</style><path id="US-KS_1_" class="st0" d="M162.3 148.2l-4.1.1H117.2l-4.1-.1-4.1-.1-4.1-.1-4.1-.1-4.1-.1-4.1-.1-4.1-.1-4.1-.1-4.1-.1-4.1-.1-4.1-.2-4.1-.2-4.1-.2-4.1-.2-4.1-.2-4.1-.2-4.1-.2-4.1-.2-4.1-.2-4.1-.3-4.1-.3.3-4.2.3-4.2.3-4.2.3-4.2.3-4.2.3-4.2.3-4.2.3-4.2.3-4.2.3-4.2.3-4.2.3-4.2.3-4.2.3-4.2.3-4.2.3-4.2 3.6.2 3.6.2 3.6.2 3.6.2 3.6.2 3.6.2 3.6.2 3.6.2 3.6.2 3.6.2 3.6.1 3.6.1 3.6.1 3.6.1 3.6.1 2.1.8 3.6.1 3.6.1 3.6.1 3.6.1 3.6.1 3.6.1 3.6.1H149.1l4 2.8h1l1.2-.5.9.6.6 1.8-.1.9h-.8l-1 1.1-1.2 2.1.3 2 1.8 1.8 1.2 1.8.6 1.9 1.2 1.4 2.7 1.5v12.4l.1 2.9v11.6l.1 2.9.1 2.9v11.6l.5 3z"/></svg>