<svg id="Layer_1" xmlns="http://www.w3.org/2000/svg" viewBox="0 0 200 200"><style>.st0{fill:#8fb2cc}</style><path id="US-MT_1_" class="st0" d="M173.3 140.6l-.4 4.5-.4 4.5-.4 4.5-.4 4.5v.4h-.4l-3-.3-3-.3-3-.3-3-.3-3-.3-3-.3-3-.3-3-.3-3-.3-3-.3-3-.3-3-.4-3-.4-3-.4-3-.4-3-.4-3-.4-3-.4-3-.4-3-.4-3-.4-3-.4-3-.4-3-.4-3-.4-3-.4-3-.4-3-.5-3-.5-3-.5-3-.5-3-.5-.4 2.4-.4 2.4-.4 2.4-.4 2.4-.8-.7-.5-.7-.4-.7-.6-2-.4-.8-.4-.5-.5-.1-.6.1-.5.4-.3.7-.6.8-.1.8.1.4-.1.2-.3.1-2.1-.7-1.9.1-1.2-.5-2.5-.3-2.1-.6h-.8l-.5.3-.8.9-.2.2h-.3l-3.4-1.2-.9-.2-1.1.5-.4.4-.2.6-.3.1-.3-.1-.7-.5-.7-.8-.3-.6.1-1.1-.4-1.4.1-1.2-.2-1-.5-1.1-.5-.7-.6-.3-1.2-.1-.2-.1-1-1.5-.3-.6v-.5l.7-1.1v-.7l-.2-.9-.3-.8-.6-.7-.4-1.4-.9-2.1-.1-1.5-.2-1.3.1-1.2-.3-.8.2-.9v-.3l-.1-.1-.7-.7-.8-1.1-.4-.3-.2-.1-.2.2-.2.4-1.8 1.2-1.4.4-.8.6-.6.2h-.3l-.4-.3-1.1-1.3-1-.7-.1-.2.2-.9.7-.9-.1-1.9.3-.6.5-.4 1.3-.4.2-.3.1-1.8-.5-.8-.1-.4.5-1.4-.1-1 .7-.7.3-1.3.7-1.3.9-2 .1-.9.7-.9.4-.9.2-.7v-.4l-.2-.2-.4-.1h-1.9l-.6-.2-.5-.3-.2-.4.1-.8-.3-.6-.2-.1-.9.1-.2-.1-.1-.2-.2-.7-1-1.6-.3-1.6-1-1.6-.8-2-.5-3.2-.4-.7-1.6-1.3-1.1-1.7-1.2-1.3-.1-.2v-.1l.1-.1.5-.2.2-.5-.3-1.2.5-1v-1.5l-.1-.5-.7-1.5-.4-1.4-.8-1.4-.9-2.2 1.1-4.7 1.1-4.7 1.1-4.7 1.1-4.7 2.3.5 5.3 1.2 5.3 1.1 5.4 1.1 5.4 1.1 1.2.3 4 .9 5.4 1 5.4 1 5.4 1 5.4 1 5.4.9 5.4.9 5.4.9 5.4.9 4.1.6 1.3.2 5.4.8 5.4.8 5.4.8 5.4.7 5.4.7 5.4.7 5.4.7 5.4.6 5.4.6 5.4.6 5.4.6 5.5.5 5.4.5 4.1.4-.3 3.7-.3 3.7-.3 3.7-.3 3.7-.3 3.7-.3 3.7-.3 3.7-.3 3.7-.3 3.7-.3 3.7-.3 3.7-.3 3.7-.3 3.7-.3 3.7-.3 3.7-.2 3.7z"/></svg>