<svg id="Layer_1" xmlns="http://www.w3.org/2000/svg" viewBox="0 0 200 200"><style>.st0{fill:#8fb2cc}</style><path id="US-MN_1_" class="st0" d="M104.8 53.7l1.8-.3h1.5l1.5.1.8.2 2.4.9 1.6.8 2.3 1.4 1.3.6.7 1.5.8 2h1l.7-1.2 1.9-.3 2.5.7 2.3 2.2 3.3 1.9 2 .9 2-.1 2.5-1.2 2.6-2.2 1.9-.4 1.2.1.6 1.7.8.6 2.1-.3h4.3l3.4-.7.8.8.8 1.4 1.4.3 1.9-.6 3 .1-.4.3h-.4l-.5.4-.7.8-1.6 1.1-2.5 1.5-2.9 1.4-5.9 2.6-3.7 2.5-1.6 1.5-6.2 7.3-3.8 3.9-6.2 5.5-.6.7v.6h-.3l-1 1.3-.4.8-1 .3.1 3.2.1 3.2.1 3.2.1 3.2-.5.4-.6.8-.9.2-4.1 2.8-.7.8-.7 1.8-1.3 2.1-.3 1.1.1 1.4 2.2 1.1.8 1.1.4 1.3v1.2l-1 2.3-.2.9.2 2.8-.5.9.5 2.3.1.8-.2 2.5-.2.7.5 1.3v.1l2.1 1.7 1.7.9 1.5.3 1.2.7.9 1.2 1.2.8 1.5.3 1.5.9 2.4 2.4 1.2 2.1 2.1 1.4 3.3 1.5 2.2 1.3 1.1 1.2.8 3.1.9 6.6-5.3.3-5.3.2-5.3.2-5.3.2-5.3.2-5.3.2-5.3.1-5.3.1-5.3.1-5.3.1-5.3.1-5.3.1H57.6v-40l-1.2-1.7-2.6-1.4-.7-.8-1.2-2-.5-.9-.1-.7.6-.7 2.4-2.1.8-1 .4-1 .6-2.2-.2-1.7.2-2.7-.5-2-.1-1-.3-1.2-1.7-3.3-.4-2.6-.4-1.3-.1-3.3.1-.9.4-1.8-.1-1.3-.1-1-.3-8-.2-1.1.1-3.7-1.3-3.9-.6-1.3-.3-1.6v-.8l-1-2.7-.7-2.9.1-2.5-.2-1.9.1-1.5-.2-2.4.2-1.3v-2l-1.4-7.1H49l6.3.1H78v-8.6l3.2.4 1 .7.3.3-.1 1 .3 3.1.6 2.6 1.4 3.1.1 1.2.5.8.8.7 3.1.8 5.4.9 3.1 1.1.8 1.3 1.5.5 2.1-.3 1.5-.6 1.2-1zm0 0z"/></svg>