<svg id="Layer_1" xmlns="http://www.w3.org/2000/svg" viewBox="0 0 200 200"><style>.st0{fill:#8fb2cc}</style><path id="US-MD_1_" class="st0" d="M146.2 62.7l2 7.4 2 7.4 2 7.4 2 7.4 2 7.4 2 7.4 2 7.4 2.1 7.3H163.1l3.7-.8 8.2-1.9 8.2-1.9 3.9-1 .3 1.4v2.1l-.7 1-.5-2.1-.8-.6-.8 1.1-.4 1.2.7 4.1-.2 2.2-2.3 1.2-1.2 5.9-1.6 3.5-.4 2.1-3.4 1.3-5.4 2-1 2.4-3-.3-4.3 1.1.2-3.1.7-2.8-2.8-2h-1.4l-1.6-.7 1.1-2.5.3-2.4-1.1-2.6.2-2.2-1 .6-1.3 2.6-.9 1.1-1.1-1.8-.7.6-.2 1.4-1 1-2.8-1.3-4-1.3-2.8-3.1-1.7-2.5v-5.2l2.2-1.4 3.3.1 4.1-.9-.8-1-1.4.5-5.2-3.1-1.9-2.1-2.6-.1-.6 2.6-1.1.9.4-5.4 1.9-.7 2.6-2.1-1.5-2.8-2.1-.9-2.9 2.3-.4-2.1v-2.8l2.5-.5 2.4.4.9-4.7-.3-2-2.4 3.5-2-5.9 1.7-6.5 2.3-3.2 3.6-.7 3.6-1.2-2.5-.5h-2.5l1.3-2.7 1.4-.7 1-2.3-3.5 1.1-.4-3.9-1.6 1.1-2 .8-.5 1.8.8 2.6-.2 1.9-1.3 1.8-2.5 1.7-.7-1.8-1.1-.7.6 4.1-.4 1.5-2.8-3.4-.4.9.3 1.1-.1 2-1.5 1.3.6 2.4-.4 1.5-5.9-.9v.7l4.1 3.8 2.6 1 .8 2.4-1.5 2.5-3.1-1.2-.4.2 2.1 2.7 1.5 2.4-.5 2.4.7 2.7.3 2.5-.1 2.3 3.5 9.6 2.2 2.3 2.1 2.2 1.4 2.2-1.6.7-3.1-1.4-2.6-1-3.8-4.2-.9-1.8-1-1.4 1.1 3.4 1.8 3.7 10.6 6.9 2.3 3 1.8 2.4.2 2.6-2.6-1.3-2.4-1.9-5.7-1.5-6.9-.2-5-5.2.5 2.5-.4 2.3-2.8-2.1-1.9-1.9-1-2.3-2.8.8-2.5 2.7-2.9.1-1.2-4 .3-2.3 2.1-5.8 2.4-3.3.6-3.7-1.6-5.2 1.2 3.8 2.4-4.6-2.8-2.6-2.6-2.4-2.3 3.8-2.8-.7-4.9-3.1-7.2-1.4-1.2-1.2-.2-1.6.4-2.3-2.5-1.7-5.4-1.1-2.5-1.3-.5-.3-.7-2.1-.9-1.2-.4-.3-.4-.9.4-1.4-1-1.2-2.3-1.1-1-1.1.4-1.3-1.1-.4-2.6.6-2.8-.5-3-1.7-3.1.2-4.9 3.3-2.9 1.1-1.1 1.5-.2 2.3-1.1 1.3-2.9.6h-.5l-3.4-.1-2.5-.8-.5-.5v-1.2l-.5-.4h-.7l-.5.8-.3 2.1-4.7 6.6-3-.6-1 .2-6.6 9.3-2.2 1.7-4.1 4.4-1-6.1-1-6.1-1-6.1-1-6.1 8.5-1.6 8.4-1.6 8.4-1.6 8.4-1.6 8.4-1.6 8.4-1.7 8.4-1.7 8.4-1.7 8.4-1.7 8.4-1.8 8.4-1.8 8.4-1.8 8.4-1.8 8.4-1.8 8.4-1.9 8.2-1.5zm38.6 74.2l-1 .4.6-1.9 1.5-8.6.8-3.1-.1 5.9-1.3 5.7-.5 1.6z"/></svg>