<svg id="Layer_1" xmlns="http://www.w3.org/2000/svg" viewBox="0 0 200 200"><style>.st0{fill:#8fb2cc}</style><path id="US-ME_1_" class="st0" d="M78.2 34l.3.6 1.3.9 1.7.4 1.2-.1 1.3-.4 2.9-2.6 3.7-2.3 1.9-1.6.1-1 .9-.6 1.7-.2 3.7 1.3 4.5 2.3 3.6 1.8 1.6 4.6 1.6 4.9 1.7 5.1 1.2 3.7 1.7 5 1.3 4 1.8 5.2.9 2.8.6.7.1 1.2.1.6.2.4.3.5.2.8-.1.8.1.9.4 1.3.6.7.8.3.5-.2.8.2 1.2.6 1.6.3 1.5-.2.9-.5 1.3.1.8 1 .1 1.2-.5.7-.6.6.1.9.6.8.8.6 1 1.2.1 1.2-.2 1.2.1 1.1.7.7 1.5.8 1.1.9 1.3.2.4-.6.2-.7.3-.6h1.9l1.1.1.2 1L142 90l1.5 2.9-.3 1.6.8 1.8 2.2-.1.7.4.3.6-3 6.2-4.1.6-1.7 1.9-2.1 1.1-.3 2.4-1.1.8-1.7.4-1.6-.1-1 .6-.3 4.3-1.3.1-.1 1.5-.5.8-.8.8-1.4-1.4-1-1.4-.9-.1-1.2-.1-1.1.4-.6.5-.6 1.3-1 1.3-1.2-.4-1.1-1v2.1l-.3 2.3.9 2.3v1.5l-1-.1-1.3-1-2.8-.2-2 .7v-1.4l1.3-2.5-.7-.2-.8.6-.5-.1.1-1.9-.5-1.9-.6.9-.4 2.3-2.1 2.4.9 2.6-.7 6.2.6 2.4-1 2.3-1.5 2.2-2.8.4-1.6 2-.6 1.9-.8.5-1.1-1.9-.5-.5.1 3.2-.7.4-.9-2-.8-1.3-.7 1.5.3 3.4-.8-.1-.6-1.1-.6-.2.2 1.4.8 1.9-.1 1.1-.9-.3-1-.7-1 1.1-1 .6-.3-1-.1-1.2-2 1.3-2 2.9-1.2 3.6.9.3 1.1.7-2.3 5.6-2.5 5.2-.9 7.5-.9 1.1-.6 1.5-2.7-2.4-1-2.3-2.9-2.2-1.4-1.7-.9-2.1-.5-2.4-1.2-3.4-1.2-3.4-1.2-3.4-1.2-3.4-1.2-3.4-1.2-3.4-1.2-3.4-1.2-3.4-1.2-3.4-1.2-3.4-1.2-3.4-1.2-3.4-1.2-3.4-1.2-3.4-1.2-3.4-1-3.1.4-.6 1.1-1.3.9-.1 1.1 1.1.9.7.7-.5.3-1.4-.5-1.7.5-1.5 1-.5 1-.2.3-.7-.3-.8-.7-1.3-.4-1.7 1.5-3.6 2.3-2.8.7-1.3-.3-2.1 1-2.6.5-1.4-.1-1.1-.8-1.2.8-3.2-.3-3.1-.2-3.4.7-3.3 1.5-3.8-.6-4.3-.6-4.5 1.7-5.1 1.9-5.8 1.1-3.3 1.9-6 1.3-4.3.7-2 .7-2.3 2.2-.1 2.2-.1.6 2.9.7 1.5zm47.7 86.8l-1.1 1-1.5.2.5 1.6v.6l-1.8-.4-.7-.4-.6-2.2.7-2.5.8-1.1 1.6.1 1.8 2 .3 1.1zm-8.4 7.3l-.7.9-1 .1-.5-1.5.1-.6.2-.3.6.3 1.3 1.1z"/></svg>