<svg id="Layer_1" xmlns="http://www.w3.org/2000/svg" viewBox="0 0 200 200"><style>.st0{fill:#8fb2cc}</style><path id="US-MS_1_" class="st0" d="M134.1 43.7l2.1 1.6V47.7l-.1 5.1-.1 5.1-.1 5.1-.1 5.1-.1 5.1-.1 5.1-.1 5.1-.1 5.1-.1 5.1-.1 5.1-.1 5.1-.1 5.1-.1 5.1-.1 5.1-.1 5.1-.1 5.1.7 5.1.7 5.1.7 5.1.7 5.1.7 5.1.7 5.1.7 5.1.8 5.6-6.9 1-3.1-1.2-1.3-.2-.8.1-3.4 1.6-3.9 1.3-1-.2h-1.4l-2.7 3.6-1.8 1-.6-.2-.7-.2-.5-.3-1-1.9-.4-1.4-1.3-3-1.3-1.7-1.4-1.1-.7-1.1v-.8l-.5-1.4v-1.1l1.4-4.4.5-3.2-5.7.4-5.7.4-5.7.4-5.7.3-5.7.3-5.7.3-5.7.3-5.6.3v-.8l.9-1 .3-1.2-1-2.9.2-1.6 1.4-.4.6-1.6-.1-2.8.5-1.9 1-1.1.9-2.4.8-3.7 1.8-3.1 2.9-2.5 1.4-2.1V127l.3-.8.6-.4 1-1.1 1.2-1.6.2-1-.1-.7-.1-.7-1.1-1.3-1.7-1.1-1.1-1.8v-1.4l-.4-1.2-.8-1 .1-1 1.1-1v-.9l-1.1-.8-.1-1.4.9-2.1-.1-1.4-1.1-.7-.2-1.3-.1-.7.8-4.9-.8-.6-1.1-1.4-.2-1.8.5-2.2-.4-1.7-.9-.6-.3-.6-.3-1 .9-1V85l-.9-.7.5-1.1 1.8-1.5.5-.8.5-.9.2-2-.3-1.2-.5-.8.2-.4.4-.4 2.2-.9.6-.5.1-.6-.8-1.5.6-1.7 2-1.8 1-1.6v-1.3l.9-1 1.8-.7 1-2.5.2-4.3.4-1.9.9-.3.5-.6.1-1.2 1.1-1.3 2.1-1.4.8-1.3-.2-.8-.1-.8 5.7-.4 5.9-.4 5.9-.4 5.9-.4 5.9-.4 5.9-.5 5.9-.5 6.2-.5zm2.1 130.8l-.3.3-2.1-.4-1.3-.4-.3-.5 3.6.7.4.3z"/></svg>