<svg id="Layer_1" xmlns="http://www.w3.org/2000/svg" viewBox="0 0 200 200"><style>.st0{fill:#8fb2cc}</style><path id="US-MI_1_" class="st0" d="M49.7 41.9v.4l.6.1-.1.2-.6.4-1.6.8-1.2.2-.6-.2-.1-.5.4-.7v-.3H46l.1-.3.7-.6 5.6-3.8 2.4-1.4 1.3-.5.2.2-1.3 1.4-.2.5.1.3-.4.7-4.1 2.7-.7.4zM62.2 57l-.2.8.1.4-1.7 2.1-.6 1.3-.5.2-.6-.8v-.7l.4-.5.4-.8v-1l-.2-.3-.5.9.3.2.1.1-.1.3-2.2-.2-.7-.6v-1l.6-1.3 2.3-2.8 1.1-.8 3.1-1.4 1.7-.4 1.8-.2 1.3.3.9.7-.7.6-3.5.7-.1.2.7.3.2.3-.5.8-2.9 2.6zm60.9 9.4l.5.2.4.5 1 1.3.5.9.4 1.3.2.4.1.8-.5.6-.1.4.4.4 1.8-.1.9.3.4.4-.1.6.2.6.5.5 1.6.7.4.4v.5l-.4.3-.8.2-5.7-.1-1.7.1-.2.3-.2.1-.3-.1h-.5l-.3-.2-.3-.5-.5-.3-.8-.1-.6.5-.6 1.8.2.3v1.1l.2.3v.2l-.2.2h-.5l-.7-.2-3-2.2-2.2-1-2.6-.6-2-.2-1.4.2-1.1.8-.8 1.4-1.4.9-1.9.4-1 .5-.1.5-.5.3-1.3-.4h-1.3l-1.3.4-.9.6-.9 1.7-.1.8-.7.8-1.9 1.3-.1.4-.9 1.3-.3.7.1.6h-.4l-.8-.7-.1-1 .5-1.3.5-.7h.5l.3-.6v-1.1l-.2-.6-1 .3-.5.5-.7.2-.8-.2-.5.8-.5 1.6-.6 1.1-.8.6-.6-.4-.4-1.7-.1-1.1.2-1.4-.2-.3-.3.5-.4 1.2-.5 2.6-.4.9-.6.4-.8 1.6-1.1 2.9-1.3 2.8-1.5 2.7-.9 1.5-.3.2-.1.5v1.1l-.8-.2-.7-.8-.5-.9-.1-.9.7-2.4v-.4l-.1-.2-.5-.2-1.1.5-1.1.2-.4-.1-.2-.4v-.6l.2-.8.6-1.4-.1-1.3.2-.8-.4-1.3v-.6l-.5-.6-1.4-.8-3.1-1 .2-1.4-.2-.6-.8-.8-3.2-.8-2.2-.3-2.1.2-1.5-.3H55l-1.2-.5-1.2-.6-1.1-.6-1.1-.6-2-.4-2-.4-2-.4-2-.4-2-.4-2-.4-2-.4-2-.4-.4-.8-.5-.9-.5-.9-.5-.9-.9-.3-.5-.2-.4-.5-.7.2-.4-.8.1-.2 1-.3 2.8-1.3 2.4-1.6 1.9-1.8 2.5-1.2 3-.6 2.1-.8 1.2-.9 1.6-1.7 1-.5 1.2-.2.9-.7.5-1.1 1.1-1.3 1.6-1.5 1-.6.3.2.1.5v.7l.5.5 1 .4.5.6v.7l.3.6.6.5.2 1.1v1.6l.1 1.1.2.5.2.3.3-.3.4-.6.1-.4.1-.4 2.4-1.9.5-.1.9.4 3.9.3 1.6.3 1.7.8.6.3 2.3 3 1 1.2.6.3.4.5.4 1.1.3.3h2.9l1.3-.3.8-.5.9.2 1.1.9 1 .2.9-.6.9-.1.9.4.4.3h.2l1.5-1.8 1.8-1.6 2.5-1.8 1.5-.8.4.1 2.4-.8 2.2-.3h2.9l2.6-.7 2.3-1.3 2.1-.8 1.9-.3.8.2-.4.8-.1 1.2.2 1.7v1.1l-.2.5v.4l.3.4h1.9l1 .4 1.1-.1 1.2-.7 1 .1.8.8h1l.9-.8.6-.7.5-.3.1-.3zm3.8 2.8l.1.5-.5-.1-.4-.3-.4-.5-.6-1.3-.7-.9.8-1.2.5-.2.6.2.2.6-.3 1.1.2 1 .5 1.1zm.6 2.5l-.2.2-.9-.8-.2-.5.1-.5.3-.1.5.3.3.4.1.5v.5zm10.2 3.9l.2.5-.3.8-1 .5-2.2.3-1.5-.1-.7-.4-.2-.2v-.6l.3-.1.5.2.7-.2.8-.7.4-.5v-.3l-.4-.5.2-.3 1.2.1.5.3 1 1.2h.5zM121.9 82l2 .1.2-.2.6.5.2.5-.2.4-.3.3-.5.1-.8-.3-1.3-1 .1-.4zm-3.1 1.1l1.2.3 2.2 1.1 2 .6h1.8l1.4.3.9.6.7.8.5.9.9.4 1.4-.1 1.1.2.9.6 4.5 1.1 1.9.6 1.1.7.4.5v.6l.2.6.9 1.1.3.1.2.5.2 1 .3.6.4.3-.2.2-1.4-.4-.7.3-.2.8v.7l.3.6 2 1.8.7 1.8.4 2.2-.1.9.1 2 .3 3 .1 1-.4 1.1-1.3 1.6-.1-.3h-.4l-.4.3-.4 1.3-.2 2.3-.4 1.3-.7.3-.4.4-.1.5-.7.4-1.3.3-.8.8-.4 2 .2.9-.2 1.2.2 1 .5.8 1.2.7 1.9.6h1.1l.7-.4.6-1.4.7-.6.9-.4.3-.7 1.1-2.9-.1-.6-.6-.1.1-.2.7-.2.6-.4.4-.7.8-.6 2.1-1 1.1-1 .7-.2 1.2.3 1.6.8 1.3 1.3 1.1 1.8 1.8 4.7 2.5 7.6 1.5 4.2.6.9.3.4-.2 6.3-.5 2.7-1.4 1.7-1.4 1.7-1.7 2.7-2 1.5-1 .9-.2.5-.3-.1-.4 1.4-.3 1.9v1.4l.3.7-.4.6-.7 1-.1.4.1.5-.1.3-.4.1-.3.3-.6 1.1-1 2.7-.2.5-.2.2-5.5 1-5.5.9-5.5.9-5.5.9-.2-1.3-5 .6-5 .6-5 .6-5 .6-5 .5-5 .5-4.1.4 1-.7 1.6-1.6.8-1.4.8-1.8.7-2.2 1.5-3.3.7-2 .6-2.5.4-2.6.2-2.7-.1-2.8-.3-2.8-.8-2.8-1.2-2.8-.6-1.4-.2-.4-1.9-3.5-2.3-4.9v-.4l1.3-3.2v-.4l-.4-2.4-.5-1.2-1-1.6v-.4l1.4-2.3.8-1.7.7-2.1.3-2.4v-2.6l-.2-1.7-.4-.8v-.7l.3-.5 1.7-.8.5-1.1-.1-1.8.3-.9.6-.1.5-.4.4-.8.7-.3.9.2 1-1.2 1.2-2.8 1-1.6.8-.4.2.2-.4.8-.1.9.3.9-.1.9-.2 1.3.3.4-.4 2 .1 1 .5.7.4-.3.4-1.3.1-.7-.2-.1v-.6l.3-1 .3-.5h.3l.2.5v1l-.6 2.5-.2.3.2.2.8-1.6.6-2.5.4-1.9v-1l-.5-2.6-.1-1.1.2-.8.8-.9 1.4-1.1 1.4-.7 1.5-.2 1-.4.5-.5-.2-.3-1-.1-.8-.5-.6-.8-.3-1V88l.5-1.2 1-1.2.2-.9-.5-.5.4-.2h1.3l.9-.3.5-.5.2-.1zM107 88.8l-.5.2-.4-.2v-1.1l.3-1.9.4-.9.8.2-.1.2.4 1.9-.2.9-.7.7zm-5.4 11.9l-.2.3h-.4l-.4-.3-.5-.9.1-.2.9.1.3.4.2.6z"/></svg>