<svg id="Layer_1" xmlns="http://www.w3.org/2000/svg" viewBox="0 0 200 200"><style>.st0{fill:#8fb2cc}</style><path id="US-MA_1_" class="st0" d="M118.8 55l-.1 3.3 2.1 2.6 1.7 2.9 2.8 2.5 1.7-.2 1.7-1.1 1.4-.2 1.2 1 .1 1.7-2 1-3.1 3.8-3.1 2-.8 3.8-1.5 4.5-3.3 7.3 2.7 1.2 8.3-.2 4.1 1.1 8.3 9.5-.9 1.4.1 2.1 5.5 1.5 3.8 7.5 4.6 1.6h6.2l6.3-4.4 4.8-5-1-2.6-5.5-5.2-1.7-2.7-3.3-1.1-.5 1.9-2.4-1.6-.5-1.1 1.5-1 2-.3 2.5.4 7.7 5.1 4.2 8.5 2 5.5-.1 2.1-1.8.1-3 1.3-14.2 7.3-2.6 3.6-6.9 5-.9-1.3-.3-3-2.2-5.8-1.6.2-9.2 13.1-4.5 1.9-3.1 3.9-1.3-1.3-2.7-7.1.7-6.8-1.3.5-1.8 2.9-2.2-2.2-2-1-2-.9-.5-2.2-.8-3.3-2-.1-1.3-4-.9-2.6-3.3 1-2.7.8-4.3 1.3-4.5 1.3-3.3 1-.2-.6-5.2 1.3-5.2 1.3L74 121l-5.2 1.3-5.2 1.3-5.2 1.3L53 126l-5.2 1.3.1 1.4-1.8.7-.5-1.5-3.7.8-3.7.8-3.7.8-3.7.8-3.7.8-3.7.8-3.7.8-3.7.8-1.5-1.1.1-5.3.1-5.3.1-5.3.1-5.3.1-5.3.1-5.3.1-5.3.1-5.3 4.3-.9 4.3-.9 4.3-.9 4.3-1 4.3-1 4.3-1 4.3-1 4.3-1 6.2-1.4 6.2-1.4 6.2-1.4 6.2-1.5 6.2-1.5 6.2-1.5 6.2-1.5 6.2-1.5 3.3-2.6 3.2-5.8 2.4-1.7 3.6-3.9 2-1.2 5-1.2zm37.8 83.7l-11.3 6.3-2.4-1.3 2.8-1.7 2.6-5.4 2.4-1.2 4.7 1.3 1.2 2zm25.2-.4l-3.1 1.9-8.4.1 5.9-3.7.9-1 .1-2.9-.3-1.4 4.1 5 .8 2z"/></svg>