<svg id="Layer_1" xmlns="http://www.w3.org/2000/svg" viewBox="0 0 200 200"><style>.st0{fill:#8fb2cc}</style><path id="US-NH_1_" class="st0" d="M140.6 142.9l.2 8.1-.1 4-5.1 1.2-2 1.2-3.6 3.9-2.4 1.7-3.1 5.8-3.3 2.6-6.1 1.5-6.2 1.5-6.1 1.5-6.2 1.5-6.1 1.4-6.2 1.5-6.1 1.4-6.2 1.4-1.3-1.9-3.4-3.1-1-1.4-.3-1.8.1-5 .6-1.7.3-3-1.4-11.2-.3-6.6-2.1-11.7.1-3.6.5-2.4.3-5.9 2-5.3.6-6 1.2-5.4-.4-2.9.2-6.5L66 86.6l.8-2 5.2-3 1.5-1.6 4.7-6.1 1.4-2.4.7-2.2.1-3.2.4-1-.3-1.7-4-6.4-.8-2.5 2.4-9.2-2.2-4.4.4-1.3.9-12.4 2.3-6.3 5.7.3 2.7-.9 1.5-2.4 1.9 5.7 2.1 6.4 2.1 6.4 2.1 6.4 2.1 6.4 2.1 6.4 2.1 6.4 2.1 6.4 2.2 6.4 2.1 6.4 2.2 6.3 2.1 6.4 2.1 6.4 2.1 6.4 2.1 6.3 2.1 6.4 1 4.4 1.6 3.8 2.5 3.1 5.3 4.1 1.9 4.2 5.3 3.9z"/></svg>