<svg id="Layer_1" xmlns="http://www.w3.org/2000/svg" viewBox="0 0 200 200"><style>.st0{fill:#8fb2cc;stroke:#8fb2cc;stroke-miterlimit:10}</style><path id="path9" class="st0" d="M88.5 8.6l.3-.1.1.1c0 .1-.1.2-.1.3h-.2c0-.2 0-.3-.1-.3z"/><path id="path11" class="st0" d="M96.3 21.2v.3l-.1.1c0-.2 0-.3.1-.4z"/><path id="path13" class="st0" d="M96.6 21.6v-.3h.1v.2c0 .1 0 .1-.1.1z"/><path id="path15" class="st0" d="M100.6 29.4v-.3c.1-.1.1-.2.2-.2.2-.1.4.2.4.3 0 .1-.1.2-.1.2-.2.2-.4.1-.5 0z"/><path id="path17" class="st0" d="M107.1 51.5v.2c.1.1.2.1.3.2.2.1.2.7.2.8-.1 0-.1.3-.1.3 0 .1-.2.2-.3.2-.1.1-.1.2-.1.2-.7.2-1.1-1.4-.6-1.8h.1v-.2l.5.1z"/><path id="path19" class="st0" d="M108.3 70.2h-.2c0-.1.3-.7.3-.8 0 0 .1-.1.2-.1.4.1.7-.7.7-1 0-.2-.1-.3-.1-.5s.1-.3.2-.5c.5-.1 1.3.3 1 .8-.1.2-.2.4-.3.5v.2l-.1-.1c-.1 0-.4 0-.4.1-.1.2-.3.4-.4.5-.2.4 0 .5-.6.8-.1 0-.2.1-.3.1z"/><path id="path21" class="st0" d="M110.9 80.8s.4.2.4.3l.1.1c0 .3-.4.4-.6.5-.1-.1-.1-.2-.1-.3 0-.4 0-.5.2-.6z"/><path id="path23" class="st0" d="M111.1 88.5c-.1-.1 0-.3.1-.4l.1.1h.1c0 .2-.1.2-.2.3 0 .1 0 .1-.1 0z"/><path id="path25" class="st0" d="M111.4 98.8v.2c0 .1-.1.1-.2.1h-.1V99c0-.1.1-.2.1-.2h.2z"/><path id="path27" class="st0" d="M109.7 103.4c-.1-.1-.1-.2-.2-.3l.1-.1c.1 0 .1-.1.2-.1 0 .2.1.4.1.6h-.1c.1-.1 0-.1-.1-.1z"/><path id="path29" class="st0" d="M108.1 111.7v.1c0 .1-.2.4-.3.4-.2 0-.7-.1-.9.1v-.1c-.1 0-.2 0-.3.1-.1 0-.6-.2-.6-.3 0-.2 0-.3.1-.5s1 0 1 0c.4-.1.3-.1.6 0 .2.1.3.1.4.2z"/><path id="path31" class="st0" d="M116.6 120.2l.3-.1v.1c-.1.1-.2.1-.3.3h-.1l-.1.1c.1-.1.1-.1.2-.4z"/><path id="path33" class="st0" d="M109.1 143.1c-.2-.5-.7-.2-.9-.3l-.4-.4v-.1c.1-.2.1-.3.2-.5 0-.1 0-.3.1-.4 0-.1.2-.2.2-.3.1-.2.1-.5.2-.7-.1-.2-.1-.1-.1-.4l.1-.1h.1l.1-.1v.1c.1-.1.5-.5.6-.5l.1-.1c.9-.2.7-.9 1.4-1.1.1.1.3.2.3.3h.1c0 .1 0 .4-.1.4h-.3l-.1.3v.2c-.2 0-.3.3-.5.3-.1.1-.1.3-.2.5v.2l-.1.2v.2l.1.1v.2l.2.1v.2c-.1.1-.1.2-.2.3l-.3-.1c0-.1-.1-.2-.1-.2-.1-.1-.4.1-.5.1l-.1.3c0 .2.1.4.3.5 0 .2-.1.4-.1.6l-.1.2z"/><path id="path35" class="st0" d="M107.1 146.5c.1.1.1.1.1.2h-.2c-.1.4-.1.3-.4.6l-.1-.1c-.1 0 0-.8-.2-1-.1 0-.2-.1-.2-.1-.1-.1 0-.5-.3-.5l-.2.1c-.1-.1-.1-.2-.2-.3l.1-.1c0-.1-.1-.2-.1-.3 0-.4.4-.7.3-.9 0-.1.2-.2.2-.3.2-.4.6-.6.8-.9.6.1.3.8.4 1.1 0 .1-.2.2-.2.3-.1.4.1.7.5.8.1.1.1.3.1.5-.3.2-.4.5-.4.9z"/><path id="path37" class="st0" d="M104.9 148.7c.1 0 .2.1.2.1v.1l-.4.4c-.2 0-.5.1-.5.1l-.1-.1v-.2l.1-.2c.1 0 .6-.1.7-.2z"/><path id="path39" class="st0" d="M97.2 165.2c.3.2.7.1 1 .3 0 0-.1.6-.1.7l-.2.2c-.2.1-.3 0-.5 0l-.4.1-.2.3v.2c0 .1-.1.1-.2.1 0 .1-.2.3-.3.3-.1-.1-.4.1-.5 0-.1.1-.4.2-.5.1l-.1-.1v-.4c-.1-.1-.4-.2-.5-.2-.2.1-.3.5-.6.6v-.3l.3-.3c.2-.3.3-.6.6-.8.3-.1.4.1 1-.2.3-.1.4-.3.6-.4.1-.1.2-.1.3-.1.1-.1.3-.1.3-.1z"/><path id="path41" class="st0" d="M82.2 184v-.2c.2-.1.4 0 .6.1h.2l.1.1h.2c0 .2 0 .4.1.6 0-.1.1-.4.1-.5l-.1-.1v-.2c.1 0 .2.1.3 0 .1-.3 0-.3.1-.5.3-.1.3 0 .6-.3h.2c.2-.3.4-.1.7-.1l.1-.1h.4l.1-.2v-.1l-.1-.1.1-.2.2-.1c.1 0 .2 0 .3.1l.2-.1.1-.2c-.2-.4.1-.8.3-1.1.1-.1.1-.2.2-.3l.1-.1c.1-.1.1-.3.2-.4v-.5c0-.2.3-.7.4-.9l.1-.1c.5 0 .3.2.7.4 0 .3.1.3.4.5 0 .1.1.4.2.4.3.1.7 0 1 0v.3c0 .1-.1.2-.1.3 0 .1-.1.2-.1.2-.1.4-.2.7-.5 1.1-.4.1-.6.2-.7.6-.4.2-.7.4-.9.8-.5.1-.4.6-.9.6-.1.1-.2.3-.2.3h-.3l-.1.2v.2c-.2.2-.4.8-.4 1.1v.7l-.1.1.1.1c0 .2 0 .7-.1.9 0 .1-.1.2-.1.4-.1 0-.2.1-.2.2h-.2v.1l-.2.1.1.1c-.1.2-.2.4-.4.4h-.1v-.1c-.3.3-.7-.2-1.1-.2-.2-.1-.4-.4-.4-.6-.1-.1 0-.3.1-.5l-.1-.1v-.1l.1-.2-.1-.1c0-.2-.1-.4-.2-.5H83c.2-.3.4-.7.4-1.1l.2-.2v-.3c0-.2-.3-.3-.5-.4-.6 0-.5 0-.9-.2z"/></svg>