<svg id="Layer_1" xmlns="http://www.w3.org/2000/svg" viewBox="0 0 200 200"><style>.st0{fill:#8fb2cc}</style><path id="US-NY_1_" class="st0" d="M33.1 32zm105.6 72.1V111.3l-.1 2.4-.1 2.4-.1 2.4-.1 2.4-.1 2.4.7.5.5 2.5.5 2.5.5 2.5.5 2.5.5 2.5.5 2.5.5 2.5.5 2.5.9.9.9.9-.6.7-1 1-1 1.1-1.4 1.4 1.2 1.1 1.4 1.4-.6.9-1.6 2.9-1.1 1.6-1.1.7-.5 1.2-.6.9.2-2.5.4-2.2-.2-3.9-1-3-1.2-1-1.1-.6 1.8 2.8 1.1 3.6v.1l-2.2-.7-2.3-.7-2.3-.7-2.3-.7-2.3-.7-2.3-.7-2.3-.7-2.3-.7-.7-.9-.9-.6-3.9-.5-1.1-.7-1.1-1-.9-1.3-.7-1.5-.3-1.2-.1-1.4-1-.7-.2-.9-.7-.5-2.6-.5-1-1.3-1.8-1-2.7.6-2.7.6-2.7.6-2.7.6-2.7.6-2.7.6-2.7.6-2.7.6-2.7.6-2.7.6-2.7.6-2.7.6-2.7.6-2.7.6-2.7.6-2.7.6-2.7.6-2.7.6-2.8.6-2.7.6-2.8.5-2.8.5-2.8.5-2.8.5-2.8.5-2.8.5-2.8.5-2.8.5-2.8.5-2.8.5-2.8.5-2.8.5-.6-3.6-.6-3.6v-.1l1.1-.9 3.4-3.1 1.6-2.1 1.7-1.8 1.9-1.6 1.4-1.8.9-2.1 1.1-1.6 1.3-1.2.6-1.1-.1-1-.5-1.3-1-1.6-.3-1.3.3-1.1v-.7l-.3-.3-3.3-.4-.7-4.6-.1-.1.1-.1 6.7-3.4 4.4-1.6 5.5-1.3 6.8-.3 2.7.4 1.9.8 1.9-.1 2-1 2.9-.8 3.8-.6 2.1-.1.3.3.2-.2.1-.6.9-.9 2.6-1.6.4.1.5-.6.5-1.3 1.2-1.6 1.8-1.9 1.7-1.2 1.7-.4 1-.6.4-.8v-.6l-.3-.4V93.9l-.1-.2-.3-.4-.7-2.3-.6-1-.6-.7L73 89v-.6l.9-.9.1.6.3.1.4-.4.8-1.6v-.6l.6-.7.4-1h-.6l-1.4.6-.4-.2.5-1.3-.3-.6-.3-.2h-.5l-1.4 1.3-.5.2-.2-.5-1.1-1 1.8-2.5 6.5-7.5.6-1.1.1-.8-.4-.6-.3-.1.1-.2 5.8-9 3.4-4.4 3-2.7 2.4-1.5 1.8-.3 1-.4.9-.2 4.4-1.1 7.8-1.9 7.8-2 4.6-1.2.6 1.7.1 2.2.9 2.2.8 4.8 2.1 3.4.3 2.5.7 2.6v.7l-.6 1.8-.2 1.6.1 1.6.3 1 1.9 4.1.6 1.9.3 1.1.2 3.7.2 1 .3.2.3-.1.5-1.3.3-.3.5.2 1.6 1.4.7 3 .5 2.2.6 2.4.9 3.7.6 2.7.6 2.4.4 1.9.1 1.4.9 1.7zM73.8 76.8l-.6.4-.2-.3v-.3l.4-.5.8-.2v.3l-.4.6zm-1.2 8.3l-.3.1-.1-.6.2-.4.6-.2v.3l-.4.8zM26 121.7l-.4 1H25l-.5-.2-.3-.6v-.7l.5-.4h1.5l.1.3-.3.6zm139.5 25.2l-1 2.1 1.3-.2 1-.8.8-1.3 2.1-2 1.9-1.2.6-.3 1.2.7 1.7-1.3 1.9-1-7.5 6.7-1.7 1-2.2 2-2.2 1.6-1.7.8-7.8 5.5-.7.2-.8-.1-6.7 3.5-2.9.9-2.5 1.2 1.6-1.8-.1-.5-.6-.3-1 .4-.7 1.7-1.6.9-.7-1.4.3-1.3.5-1.3 1.3-2.2 2.2-1.7 1-1.3 1.1.6-.1-1.2.5-.8.6-.5 1.7-.4.9-.4.6-.6.7-.2h2l1.8-.6 1.3-1.1 1.5-.6 4.1-1.2 3.9-1.6 1.4-1.4 2.7-3.5 1.8-1.2-2.3 3.8-1.2 1.7zm-30.6 20.8l-.9.3.3-2.8 1.5-1.6.7.1.2.9-.1.8-.9 1.5-.8.8z"/></svg>