<svg id="Layer_1" xmlns="http://www.w3.org/2000/svg" viewBox="0 0 200 200"><style>.st0{fill:#8fb2cc}</style><path id="US-NE_1_" class="st0" d="M163.6 86.7l.6.1 1.3 2.4.5 4.2 1.2 3.4 1.9 2.6.9 1.9v1.2l.4 1.3.9 1.4.4 2.3-.2 3.3.4 1.7 1 .2.4.5-.1.7.3.5.8.3.2 1-.3 1.6.3 1 .9.4.2.8-.6 1.1.1.9.7.7.5 2.9.3 5.1-.1 3-.4.9.7 1.8 1.3 2 .5.8 1.1 2.8.5 2.8 1.1 1.8 1.8.8 1.2 1.8.6 2.7 1.5 2.3.3.2h-38.1l-4.3-.1-4.3-.1-4.3-.1-4.3-.1-4.3-.1-4.3-.1-4.3-.1-4.3-.1-4.3-.1-4.3-.2-4.3-.2-4.3-.2-4.3-.2-4.7-.2-4.3-.2-4.3-.2-4.3-.2-4.3-.2-4.3-.2-4.3-.3-4.3-.3-4.3-.3-4.3-.3.2-3.3.2-3.3.2-3.3.2-3.3.2-3.3.2-3.3.2-3.3.2-3.3-5.1-.3-5-.3-5.1-.4-5-.4-5-.4-5-.4-5.1-.4-5-.4.6-6.7.6-6.7.6-6.7.6-6.7.6-6.7.4-6.9.6-6.7.6-6.7 6.8.6 6.8.6 6.8.5 6.8.5 6.8.5 6.8.5 6.8.4 6.8.4 6.8.4 6.8.3 6.8.3 6.8.3 6.8.3 6.8.3 6.8.2 7.8.2 5.8 4.1 3.5 1.3 1.7-1.1 3.6-.6 5.6-.1 3.5.6 1.5 1.3 2.8 1.5 4.2 1.6 2.5 1.7.8 1.9 1.5 1.2 1.6.4z"/></svg>