<svg id="Layer_1" xmlns="http://www.w3.org/2000/svg" viewBox="0 0 200 200"><style>.st0{fill:#8fb2cc}</style><path id="US-ND_1_" class="st0" d="M174.9 149.3H170l-4.9-.1-4.9-.1-4.9-.1-4.9-.1-4.9-.1-4.9-.1-4.9-.1-4.9-.1-4.9-.1-4.9-.2-4.9-.2-4.9-.2-4.9-.2-4.9-.2-4.9-.2-4.9-.2-4.9-.2-4.8-.3-4.9-.3-4.9-.3-4.8-.3-4.9-.3-4.8-.3-4.9-.3-4.8-.4-4.8-.3-4.9-.4-4.8-.4-4.8-.4-4.8-.4-4.8-.4.5-5.7.5-5.7.5-5.7.5-5.7.5-5.7.5-5.7.5-5.7.5-5.7.5-5.7.5-5.7.5-5.7.5-5.7.5-5.7.5-5.7.5-5.7.5-5.7 2.1.2 8.4.7 8.4.7 8.4.6 8.4.6 8.4.6 8.5.5 8.4.5 8.5.4 8.4.4 8.5.4 8.5.3 8.5.3 8.5.3 8.5.2 8.5.2 6 .1L164 67l-.1 2.6-.3 1.7.2 3-.1 2 .3 2.6-.1 3.4.9 3.9 1.4 3.6-.1 1 .4 2.1.8 1.8 1.7 5.2-.1 4.9.3 1.5.4 10.6.1 1.3 1 1.6-.5 2.4-.1 1.3.1 4.5.6 1.7.5 3.5 2.3 4.4.4 1.7.1 1.3.6 2.7-.2 3.6.4 2.4z"/></svg>