<svg id="Layer_1" xmlns="http://www.w3.org/2000/svg" viewBox="0 0 200 200"><style>.st0{fill:#8fb2cc}</style><path id="US-NM_1_" class="st0" d="M159.8 61.3l-.8-.1-.5 6.2-.5 6.2-.5 6.2-.5 6.2-.5 6.2-.5 6.2-.5 6.2-.5 6.2-.5 6.2-.5 6.2-.5 6.2-.5 6.2-.5 6.2-.5 6.3-.5 6.3-.5 6.3-4.3-.3-4.3-.4-4.3-.4-4.3-.4-4.3-.4-4.3-.4-4.3-.4-4.3-.4-4.3-.4-4.3-.4-4.3-.4-4.3-.5-4.3-.5-4.2-.5-4.3-.5-4.2-.5h-.1l1.5 4.2 2.2 1.4-.1-.1-4.2-.5-4.2-.5-4.2-.5-4.2-.5-4.2-.5-4.2-.6-4.2-.6-4.2-.6-.3 2.5-.3 2.5-.4 2.5-.3 2.5-6.7-.9-6.7-.9-2.4-.3 1.1-7.9 1.1-7.9 1.1-7.8 1.1-7.8 1.1-7.8 1.1-7.8 1.1-7.8 1.1-7.8 1.1-7.8 1.1-7.8 1.1-7.8 1.1-7.8 1.1-7.8 1.1-7.8 1.1-7.8 1.1-7.8 6.7.9 6.7.9 6.7.9 6.7.9 6.7.8 6.7.8 6.7.8 6.7.8 6.7.7 6.7.7 6.7.7 6.7.7 6.7.6 6.7.6 6.7.6 6.7.5-.2 2.8-.2 2.8-.2 2.8.4 3z"/></svg>