<svg id="Layer_1" xmlns="http://www.w3.org/2000/svg" viewBox="0 0 200 200"><style>.st0{fill:#8fb2cc}</style><path id="US-NJ" class="st0" d="M124.4 35.2l.4 5.3-2.3 11.6L121 55l-1.9 2.7-1.6 1.4-1.3 2.1-1.3 3.1-.6 5.7 2.3 4.5 10-.6 2.2-2.1 2.2 3.1 1.9 4.5.5 5.3-.3 5.6.4 6.7 1.4 10.1.6 9.2-.9-2.6-1.7-11-1.3 1.5-.5 2.8.5 14.6-2.3 8.4-2.5 6-4.1.1 1.9 3.9-.5 2.4.2 4.6-1.6 3.5-2.2.2-2.6 2.8-.9 1.9.6 3-1.5 3.1-4.4 15.3-5.7 5.6-1.7-.2.2-6.8-.3-6.7-4.7-1.9-4.2-.6-4.3 1.2-6-3.9-7.1-2.2-11-7.9-.4-2.8-1.3-4.6 1-7.9 1.4-5.7 2.9-3.4 9.5-5 1.6-4.6.7-3.7 2-2.8 4.8-5.4 7.6-7-16.4-13.9-3.1-.3-5.1-7.3-4.1-1.4-1.2-1-1.6-6.1-.5-3.6.1-2.2 2.7-2.5 1-4-.5-1.9-3.7-5.2-.4-1.8 3.7-4.5 4.3-8.2 1.8-8.3.9-2.5 1.3-2 3.4-3 5.6 1.8 5.6 1.8 5.6 1.8 5.6 1.8 5.6 1.8 5.6 1.8 5.6 1.8 5.9 1.8zm10 88.7l-3.5 11.4-.6-1.9 4.4-14.1-.3 4.6z"/></svg>