<svg id="Layer_1" xmlns="http://www.w3.org/2000/svg" viewBox="0 0 200 200"><style>.st0{fill:#8fb2cc}</style><path id="US-NV_1_" class="st0" d="M128.8 144.5l-1.5 7.6-1.7 8.4-.3.1-1.3 1.7-1.2.7-.8-.2-.7-.7-.6-1.3-1-.9-1.5-.5-1.4-.1-1.3.3-.9.6-.7 1.3v.6l.4 1.5-.4 2-.2 1.7.2 1-.1 1.1-.6 1.6-.1 1.4.4 2.6-1.7 6.9v.1l-3.5-5-3.2-4.7-3.2-4.7-3.2-4.7-3.2-4.7-3.2-4.7-3.1-4.8-3.1-4.8-2.2-3.3-2.2-3.3-2.2-3.3-2.2-3.3L75 127l-2.2-3.3-2.2-3.4-2.2-3.4-2.8-4.1-2.8-4.1-2.8-4.1-2.7-4.1-2.7-4.1-2.6-3.9-2.7-4.1-2.7-4.1 1-3.6 1-3.6 1-3.6 1-3.6 1-3.6 1-3.6 1-3.6 1-3.6 1-3.6 1-3.6 1-3.6 1-3.6 1-3.6 1-3.6 1-3.6 1-3.6 5.4 1.4 5.4 1.4 5.4 1.4 5.4 1.4 5.4 1.4L95 35l5.4 1.3 5.4 1.3 5.4 1.3L116 40l5.4 1.2 5.4 1.2 5.4 1.2 5.4 1.1 5.4 1.1 5.4 1.1-.6 3.1-.6 3.1-.6 3-.6 3.1-.6 3.1-.6 3-.6 3.1-.6 3-.6 3.1-.6 3-.6 3.1-.6 3-.6 3-.6 3.1-.6 3-.6 3-.6 3.1-.6 3-.6 3-.6 3-.6 3.1-.6 3-.6 3-.6 3-.6 3-.6 3.1-.6 3-.6 3-.6 3-.6 3.1-.6 3-1 3.4z"/></svg>