<svg id="Layer_1" xmlns="http://www.w3.org/2000/svg" viewBox="0 0 200 200"><style>.st0{fill:#8fb2cc}</style><path id="US-OH_1_" class="st0" d="M163.9 82.8l-3.1 2.2-.4 1.6 1.4 1.7 1 2.4.6 3-.8 7-2.1 11-.9 6.9.4 2.7-2 3.9-4.4 5.2-3.2 3.2-1.9 1.2-1.7.2-1.5-.8-1.4 1-1.3 2.7-1.4 1.5-1.5.3-1 1.8-.6 3.3-.7 2-.9.6.2 1.6 1.2 2.6.1 1-.4.1-.4-.1-.9.8-.9 1.7-.4.1-.3-.2-.6-1.9-1.1-1.3-1.6-.6-1.8 2.1-2 4.8-.7 3.1.8 1.9.7 2.9-.5 1.3-1.4.7-.9 1.7-.4 2.8-1.8 2-3.2 1.2-3.6-.7-.3-.1-4.6-2.8-3-2.9-1.5-2.9-3.5.4-5.6 3.7-4.5 1.1-3.3-1.5-2.4-.4-2.2 1-2 1.6-1.9-.5-2.6-2-3.8-1.1-5-.3-3.7-2.1-2.4-3.9-2.4-2.6-2.3-1.3-2.4-.2-2.4 1-2-.1-1.5-1.1-1.7.4-1.5 1.4-1.5-12.5-1.4-12.3-1.4-12.3-1.4-12.3L40.5 98l-1.4-12.3-1.4-12.3L36.2 61l9.4-1.5 9.4-1.6 9.4-1.6 9.4-1.7.3-.3-.1.1.5.6 2.6.1 1.9.5 1.5 1 5.2 1.6 1.7 1.2 1.6.6 1.5-.1.9-.6.4-1.1.7-.2 1 .8 2.9.6.1.3-7.4 2.8-1.5 1 2 .3 1.9-.4 1.9-1.1 2.2-.3 2 .1.6-.4.2-.2 3.7 1.8 1.3.1 1.3-.4 1.3-1 2.8-1.6 4.4-2.1 4.3-1.2 4.2-.4 2.6-.8 2.2-1.8 4.6-5.5 5.6-4.7 9.3-6.3 9.2-5.3.5 3.2.7 3.9.7 3.9.7 3.9.7 3.9.7 3.9.7 3.9.7 3.9.7 3.9.7 3.9.7 3.9.7 3.9.5 4.4z"/></svg>