<svg id="Layer_1" xmlns="http://www.w3.org/2000/svg" viewBox="0 0 200 200"><style>.st0{fill:#8fb2cc}</style><path id="US-OK_1_" class="st0" d="M174 88.9l.5 3.1.4 3.1.5 3.1.5 3.1.5 3.1.5 3.1.5 3.1.5 3.1V152.1l-4.2-1.1-1.1-.7-1.9-.8-1.8-1.7-3.4-2-1.3-.5-.4.1-.7 1-1.8.8h-1l-1.8-.3-.3-.3-.3-.6-.7-.4-.5.3-2.6.9-.4.6h-1.5l-1.5-.4-3.7 1.4-1.3 1.1-1.3.4-.7 1-.4-.2-1.4-1.3-1.4-.4-1.9-1.3-.1-1.1-.2-.1-.3-.1-.4.1-.9 1-.5.2h-.5l-1.9-.7-.8-1.1-.4-.4-.4-.1-.8.3-.5 1.3-.4.3-.8.2v.6l-.7 1.7-.4.3-.5-.1-.5-.4-.4-.6-.2-.5.3-1.4-.2-.5-.4-.1-.9.6h-.8l-1 .6-.7.2-.6-.2-.9-1.1-1.7-.7-.6-1.2-.3-.4-.4-.1h-.4l-.6.4-2 1.6-.9.5-.8.1-.7-.2-.4-.4-.1-1.7-.4-.5-1.8-1.1-.3-1-.1-1.4-2.1.2-2.6-.2-1.2 1.2-.6.2-.7-.3-2.1-1.7-2.3.3-1.3-.2-3.1-1.3-2.5-.2-1-.2-.5-.3-.2-1.8-.9-1.6-.3-.4-1.6-1.2H87l-.2.2-.4 1.2h-.5L84 134l-1.8.3-1-.6-3.2-3-1.3-.8-1.1-.3.1-2.7.1-2.7.1-2.7.1-2.7.1-2.7.1-2.7.1-2.7.1-2.7.1-2.7.1-2.7.1-2.7.1-2.7.1-2.7.1-2.6.1-2.7.1-2.7-3.2.9-3.4-.2-3.4-.2-3.4-.2-3.4-.2-3.4-.2-3.4-.2-3.4-.2-3.3-.2-3.4-.2-3.4-.2-3.1-.1-3.3-.3-3.3-.2-3.4-.3-3.4-.2.2-2.8.2-2.8.2-2.8.2-2.8 4.4.3 4.4.3 4.4.3 4.4.3 4.1.3 4.1.3 4.1.2 4.1.2 4.1.2 4.1.2 4.1.2 4.1.2 4.1.2 4.1.2 4.1.2 4.1.1 4.1.1 4.1.1 4.1.1 4.1.1 4.1.1 4.1.1 4.1.1 4.1.1 4.1.1H169.1l4.1-.1V86l.8 2.9z"/></svg>