<svg id="Layer_1" xmlns="http://www.w3.org/2000/svg" viewBox="0 0 200 200"><style>.st0{fill:#8fb2cc}</style><path id="US-OR_1_" class="st0" d="M71.6 53.8l1.7-.1 1 .8 1.2 1.4.6 3.4v5.3l-.2 1.7.8 1.3 1.3.4 5.2 2.3.8.2 1 .1 3.6-1 3.5.3 3.9 1.3 2.2 1.2.6 1.2 2.1.7 5.3.3 5.7.8h3.2l3.8-.7h8.2l3.9.8 2.1-.3.6-.3.3.1 4 1 4 1 4 1 4 1 4 1 4 1 4 1 3.8.9.2 1.1 1.2 2.2 1.9 2.1 1.1 2 .3 1.9-2 3.8-4.4 5.6-2.5 3.6-.6 1.7-2.1 2.6-3.6 3.6-2 2.8-.4 2 .6 1.4 1.7.7 1 .9.4 1.1-.2.9-.8.7-.4.8v1l-.6 1.5-1.8 3v.1l-1.2 5.3-1.1 4.9-1.1 4.8-1.1 4.9-1.1 4.8-1.1 4.8-1.1 4.8-1.1 4.8-6-1.4-6-1.5-6-1.5-6-1.5-6-1.5-6-1.6-6-1.6-6-1.6-4.2-1.1-4.2-1.2-4.2-1.2-4.2-1.2-4.2-1.2-4.2-1.2-4.7-.8-4.2-1.2-4.2-1.2-4.2-1.3-4.2-1.3-4.2-1.3-4.2-1.3-4.2-1.3-4.2-1.3-4.3-1.4-1.2-3.2.4-4.1.4-1.7 1.6-4.2v-2l-.5-3.5 1.5-2.4 1.2-1.4 3.9-6.4.6-.4.7.2 1.6-.8-.5-.4-1 .3 1.6-2.5 1.6-2.1.8-.7 2.8-7.7 2.4-5.8 1.4-1.7.4-2.1 1.2-2.6.6-2.8 5.9-12.8.3-1.7 1.2-2 1.3-5.8 2.2-6.3-.2-.9.1-.9h.4l.5 1.2 3.5 1.1 2.5-.2.7.5.6 1.5 1.1.6 1.9.1z"/></svg>