<svg id="Layer_1" xmlns="http://www.w3.org/2000/svg" viewBox="0 0 200 200"><style>.st0{fill:#8fb2cc}</style><path id="US-RI_1_" class="st0" d="M142.1 86.5l-3.7 5.9-7.2-5.4-4.7-6.8-5-3.2-4.5-.5 8.1 15.4-5 14.6 6.5 32.5-6.9 16.2-30.6 17.5-10 1.8-1.1-10.6 2.2-5.2-2.3-11.2-1.5-7.3-3.5-12.2-3.9-14-4-15.1-3.7-13.4-2.7-9.7-3.7-13.3-2.6-9.5 9.9-2.9 13.5-4 13-3.8 8.1-2.4 9.9-2.9 2.6 7.8 4 12.1 6 .4 2.6 10.1 1.7 6.7 5.9 2.8 6 2.9 6.6 6.7zm9.6 38.2l-5.2 6.7-7.6 1.2 1.9-7.6-1.2-10 .7-11.6 1.2-3.8 3.5-4 6.7 29.1zm-16.1 5.8l-2.8 4.3-3.7-8.2-.2-10.6 2.6-.9 2.7 4.9 1.4 10.5z"/></svg>