<svg id="Layer_1" xmlns="http://www.w3.org/2000/svg" viewBox="0 0 200 200"><style>.st0{fill:#cdcccc;stroke:#fff;stroke-width:.5}.st1{fill:#8fb2cc;stroke-width:2}.st1,.st2,.st3{stroke:#fff;stroke-miterlimit:10}.st2{opacity:.9;fill:#ec514a;stroke-width:2}.st3{fill:#8fb2cc;stroke-width:3}</style><path id="US-SC_1_" class="st1" d="M170.3 85.1l-.4.2-6.7 6.7-1.9 2.7-4.7 10-.6 5.9-1.7-2.1v-1.8l-.2-1.5-1 3.4 2.4 4.3-1 2-3.6 4-2.2 1-2.4 1.4-.2 3.4-3 3.6-1.8 1.7-3.9-.1 1.7 2.6-1 2.4-2.1 2.1-2.8 1.6-1.7.2-1.4.8-1.1 1.4-2.6 1.8-3-.2-3.4.1-1.7 1.1 3.3.7 2 1.6.1 2.5-.7 1.1-1.7 1.6h-.9l-.7-1.1-1-2.3-.8.7v1.2l-.7.5-3.4-3.4.6 2.9 1.4 2.1 1.1 1 1 .5.4 1-1.5 2.9-.9.7-1.7.7-.7 1.8.5 1.3-6.5-1.8-2.2-2.2-.5-3.3-1.8-3.5-4.5-5.6-2.9-1.4-2.4-3.9-2.8-7-3.4-4.2-3.9-1.5-2.8-2-1.6-2.6-1.5-1.6-1.4-.6-.9-1.3-.4-2-2.4-2.3-6.7-4-1.9-2.8-3.2-2.7-7.9-5.3L43.9 89l-1.2-2.4-1.6-.8h-2.4l-2.3-.8-3.7-2.6-6-3 .6-3.6 3.6-5.1 1.1-2.6h.2l.5-.1 4.4-2.1 4.4-2.1 1-.1 2.4-1.9 5.1-2.6 1.9-1.5 1.1.2 4.6-.5 4.6-.5 4.6-.5 4.6-.5 4.6-.5 4.6-.5 4.6-.5 4.6-.5.9.2.4.5.1 1.5.3.8 2.9-2.2 1.8 1.7 3.1 2.9.4 1.9.6 2.7 4.1-.6 4.1-.6 4.1-.6 4.1-.6 4.1-.6 4.1-.6 4.1-.6 4.1-.6 4.6 3.3 4.6 3.3 4.6 3.3 4.6 3.2 4.6 3.2 4.7 3.2 4.7 3.2 4.8 3.3z"/></svg>