<svg id="Layer_1" xmlns="http://www.w3.org/2000/svg" viewBox="0 0 200 200"><style>.st0{fill:#8fb2cc}</style><path id="US-SD_1_" class="st0" d="M156.7 70.3l-.5 2.2-.4 1-.8 1-2.4 2.1-.6.7.1.7.5.9 1.2 2 .6.8 2.6 1.4 1.2 1.7v40l-2.4.1.3 1.4.6 1.4.1.8-.1.6-.5.6.1.9.1.2 1.1.6.4.8.1.9v.7l-.7 1.2-.2 1.6-.8 2.5-.9 1.5-.2.8.1.6 1.4 1.6.1.6.5.8.4 1.8-1.3-.3-1.2-1-.7-1.5-2.1-1.4-3.5-1.3-2.4-1.2-1.2-1.1-2.9-.5-4.6.1-3 .5-1.4.9-2.9-1.1-4.8-3.4-6.5-.2-5.7-.2-5.7-.2-5.6-.2-5.7-.3-5.7-.3-5.7-.3-5.7-.3-5.7-.3-5.6-.4-5.7-.4-5.6-.4-5.7-.4-5.6-.4-5.6-.5-5.6-.5.5-5.6.5-5.6.5-5.6.5-5.6.5-5.6.5-5.6.5-5.6.5-5.6h.4V85l.4-5.2.4-5.2.4-5.2.4-5.2 3.6.3 3.6.3 3.6.3 3.6.3 3.6.3 3.6.3 3.6.3 3.6.2 3.6.2 3.6.2 3.6.2 3.6.2 3.6.2 3.6.2 3.6.2 3.6.2 3.6.2 3.6.2 3.6.1 3.6.1 3.6.1 3.6.1 3.6.1 3.6.1 3.7.1 3.6.1 3.6.1 3.6.1 3.7.1h7.2l4.6.7z"/></svg>