<svg id="Layer_1" xmlns="http://www.w3.org/2000/svg" viewBox="0 0 200 200"><style>.st0{fill:#8fb2cc}</style><path id="US-TX_1_" class="st0" d="M163.6 67.9l.6.6.5.2.1.3h.2l.3-.1.4-.3.6.1.5-.1 1 .1.6.3.1 1.8.1 1.8.1 1.8.1 1.8V89.8l1.6 1.6.7 1.1.2.6.1 2 .2.5.8.7v.5l.9 1.4v.7l.8 1.5.5.4.1 1 .3.8-.4.6.2.8-.2.7-.1 1-.5 1.5-.5.7-.6 1.4.1 1.1-.3 1.3v.5l.4.8.2 2.3-.2.5-.8 1.4h-.6l-1.2 2.3.7 1.2v.5l-2.5.3-5.6 2.6-2.2 1.4.1-.5 2.6-1.8-.9-.3-1.5.5-.5-.2.6-1.5-.2-1.3H160l-.7 1h-.5l-.6-.4-.5.1.4 2.3.7.9.6 1.2-1.5 1.5-1.4 1.3-.1 1.2-1.4 1.6-1.4.9-3.2 2.1-.9.5-1.4 1-2 .7-1.9 1.1-.6.2 1.2-1 1.4-1-1.2.1-1.9-.5h-1.2v.3l-.9.5-.9-.7-.4-.5-.2-.4-.4-.1-.4.2 1.4 3 .6.1.6.3-.8.7-.9.5-1.4.3-1.2-1.1-.3 1.4-.2 1.4-.4.3-.6.5-.3-.4-.2-.5-.4.5-.6.3-1 .1-.7.2v.6l.2.6 1.3-.4-.5 1.5-1.2 1.4-1 .3-1.5-.2-.4.1-.3.3 1.7 2.3-1.2 3.4-.7 1.2-.5.2h-.5l-1.9-1.1-1-.9.9 2.3 2.5.7.1.9v.8l-.5.9-.5 1.2.3.8.4 2 .3.9.3 2.8.4 1.2 2.3 4.5h.8l.1.5-.1.9-1.7.2-.7.4-.1.4-.1.2h-.2l-.8-.3-1.8-1.3-2.6-.8-3.5-.4-2.4-.7-1.2-1-1.3-.6-1.4-.2-1.1-.6-.9-.9-1.3-.6-1.7-.3-1.1-.7-.7-1.6-.6-2.7-.8-1.7-1.6-2.1-.2-.3v-.3l.3-1.2-.2-.9-.5-.7-.1-.8.3-.8.1-.9-.2-1.1-1-1.2-1.9-1.4-1.6-1.9-1.2-2.5-1.2-1.8-1.3-1-.8-1.2-.4-1.4-.1-.8.2-.2-.7-1.5-1.7-2.9-.9-2.1-.2-1.3-1.1-1.6-1.9-1.9-1-1.2-.2-.8-3-2.5-.8-1.5-.7-.5h-.8l-.4-.2v-.3H81l-.5.3h-1.7l-2.8-.4-2-.5-1.2-.7h-.9l-.6.8-1.1.4-1.6.1-1.5 1.4-1.4 2.6-.6 1.7.1.8-.4.5-.8.3-.8.7-.9 1.2-1 .5-1.1-.1-1.9-1.1-2.7-2.1-2.1-1.3-1.6-.6-1.4-1-1.1-1.4-1.1-.9-1-.5-1.1-1.5-1.2-2.5-.5-1.9.2-1.9-1.4-4.4-.8-1.9-.6-.9-1.3-1.1-1.9-1.4-2.5-2.6-3.1-3.9-2.2-2.4-1-1.1-1.1-1.4-.8-1.9-.9-1.3H27l-1.3-.8-.9-2.6h.1l2.6.3 2.6.3 2.6.3 2.6.3 2.6.3 2.6.3 2.6.3 2.6.3 2.6.2 2.6.2 2.6.2 2.6.2 2.6.2 2.6.2 2.6.2 2.6.2.3-3.8.3-3.8.3-3.8.3-3.8.3-3.8.3-3.8.3-3.8.3-3.7.3-3.7.3-3.7.3-3.7.3-3.7.3-3.7.3-3.7.3-3.7.3-3.7h.5l2 .2 2 .2 2 .1 2 .1 2 .1 2 .1 2 .1 2 .1 2 .1 2 .1 2 .1 2 .1 2 .1 2 .1 2 .1 2 .1-.1 1.6-.1 1.6-.1 1.6-.1 1.6-.1 1.6-.1 1.6-.1 1.6-.1 1.6-.1 1.6-.1 1.6-.1 1.6-.1 1.6-.1 1.6-.1 1.6-.1 1.6-.1 1.6.6.2.8.5 1.9 1.8.6.4 1.1-.2 1.1.3h.3l.3-.7.1-.1h.2l1 .7.2.3.6 1 .1 1.1.3.2.6.2 1.5.1 1.9.8.8.1 1.4-.2 1.2 1 .4.2.4-.1.7-.7 1.6.1 1.3-.1.1.8.2.6 1.1.6.2.3v1l.3.3.4.1.5-.1.5-.3 1.2-1 .4-.2h.2l.2.1.2.2.4.8 1 .4.6.6.4.1.4-.1.5-.6h.5l.6-.4.2.1.1.3-.2.8.1.3.2.4.3.3h.3l.2-.2.4-1v-.4l.5-.1.2-.2.3-.8.5-.2h.3l.2.2.5.7 1.1.4h.3l.3-.1.5-.6.3-.1.2.1.1.1v.7l1.2.8.9.2.8.8.2.1.4-.6.8-.2.8-.6 2.2-.8.9.3h.9l.2-.4 1.6-.5.3-.2.4.3.2.4.2.2 1.1.2h.6l1.1-.5.4-.6h.2l.8.3 2.1 1.2 1.1 1 1.2.5.6.4 2.4.3zm-5.6 60.6l-.6.1 2.6-2.1.5-.7h.7l-1.1 1.2-2.1 1.5zM137.4 142l-.4.1.6-.7.9-.4 2-1.4.8-.1.4-.5.2-.1-.1.6-1.6.8-2.8 1.7zm-3 3.4h-.3l.6-1.1.1-.4 1-1.4.5-.2.2.6-1 1-1.1 1.5zm-4.2 8.1l-.4.8.1-1.2 1-2.6 2-3.4.8-.6-2.3 3.8-1.2 3.2zm2 15.6l-.2.6-1-3-1.5-6.7v-3.8l.3-1.3.3 5.4 1.7 6.9.4 1.9z"/></svg>