<svg id="Layer_1" xmlns="http://www.w3.org/2000/svg" viewBox="0 0 200 200"><style>.st0{fill:#8fb2cc}</style><path id="US-UT_1_" class="st0" d="M121.1 52.9l-.4 2.7-.5 2.7-.5 2.8-.5 2.7-.5 2.7-.5 2.8-.5 2.7-.5 2.7 4.2.7 4.2.7 4.2.7 4.2.7 4.2.6 4.2.6 4.2.6 4.2.6-.8 5.5-.8 5.5-.8 5.5-.8 5.5-.8 5.5-.8 5.6-.8 5.5-.8 5.5-.8 5.5-.8 5.5-.8 5.5-.8 5.5-.8 5.5-.8 5.5-.8 5.5-.8 5.5-5.5-.8-5.5-.8-5.5-.9-5.5-.9-5.5-.9-5.5-.9-5.5-.9-5.5-.9-5.5-1-5.5-1-5.5-1-5.5-1-5.5-1-5.5-1-5.5-1.1-5.5-1.1.7-3.4.7-3.4.7-3.4.7-3.4.7-3.4.7-3.4.7-3.4.7-3.4.7-3.4.7-3.4.7-3.4.7-3.4.7-3.4.7-3.4.7-3.4.7-3.4.7-3.4.7-3.4.7-3.4.7-3.4.7-3.4.7-3.4.7-3.4.7-3.4.7-3.4.7-3.4.7-3.4.7-3.4.7-3.4.7-3.4.7-3.4.7-3.4 3 .6 3.1.6 3 .6 3 .6 3.1.6 3 .6 3.1.6 3 .6 3.1.6 3 .6 3.1.5 3.1.6 3.1.5 3.1.5 3.1.5 2.8.3z"/></svg>