<svg id="Layer_1" xmlns="http://www.w3.org/2000/svg" viewBox="0 0 200 200"><style>.st0{fill:#8fb2cc}</style><path id="US-VA_1_" class="st0" d="M120 67.3l1.1.6 2.5.5 1.1.8-.2 1.1.1.7.6.6 3.3.7 2.3 1.4 1.3.3.4.1.9.3.5.5.3 2.5-.5 1.4-1 1.2-1.3 2-.1 1.6.1 3 .9.8.8.1 1.9-1.1 1.1.1 3.1 3 4.8.4 1.8.5 1.7 1.5 2.2.6 1.9 1.2.3 1-.3 1.3.1 1.6-.4 1.1-1.6.5h-1l-6.4-4.4-.7-.4-2.5-2.5-2.6-1.1-.7.2 3.8 2.2 1.7 1.7 2.9 2.3 1.9.8 1.6 1.6 1.3.6 3.4.6-.9 1.1 1.9.4.6 1.4.2 1.6-2.5-.1.2 1.2.4.6-.9.8-1.6-.5-4.7-3.4.2.6.4.6 2.8 2.3 2.3 1.2 1.8.4 1.6 1.1.6.7.6 1.2-.8 1.1-1 .7-1.2-.6-1-.7-2-1.2-.9-1.6-1.2.4-5.7-1-4.3.6.5.4.6.2 3.5-.2 1.6.7 3 .3 1.7-.1 1.2 2.6 2.7 1.4.6 1.3 1.6-.2 2.4-2 1.8.1 2.6-.2.8 1 .9 2 1.4 2.1 1.1 2.2-.6.1-1.4.3-4.4.9-6.3 1.3-6.4 1.3-6.4 1.3-6.4 1.2-6.4 1.2-6.4 1.2-6.4 1.2-6.4 1.1-6.4 1.1-6.4 1.1-6.4 1.1-6.4 1-6.4 1-6.4 1-6.4 1-.4-.3-2.5.3-1.9.2-.8.6-3.7.6-3 .4-5 .7-6.1.9-8.6 1.2-4 .5 1.7-1.3 2.6-1 4.5-2.5 1.6-2.1 2.5-1.7.9-1.8 1.5-1.8.4-1.8.2-.3 2.7-2 2.8-2.4 5.8-6.4.2.7-.1.8.7.8.7 1.3.8.8.9.5 1.5.4 1.8.8 1.3.1.4-.1 1.2-1.3 1.1-.7 1-1.3 2.4 1.2.9-.1 2-1 2-.5.5-.3.6-.8-.2-1.3.1-.4.3-.2.4-.1 1 .3.9-.1 3.5-2.1.3.1.6.6 1.5-1.2.8-1 .2-1.3.6-1.3-.3-.5-.6-.6.4-1.7.7-1.8L87 103l.7-3.2 1.2-2.2.2-1.6.9-1.7.2-3.2.4-.7.7-.2.8.2.6.5.5.9 2 .5 1.6-.2 1-.8.4-1.2.5-2.2.6-1.4.2-1.6.3-1.1.7-.8 2.1-.4.9-1.1.6-1.2.4-.4.6-.1 1.6-2 1.8-4 .1-2.3.3-1.7-.1-1.7.3-1 2.5 1.3 1.5.8 3.3 1.8 2.6 1 .4-1.9.6-2.8zm48.3 19.2l.4-.2-1.1 3.7-.7.5 1.4-4zm-6.6 3.4l.4-1.1 2.5-.9 1.6-.6-1.8 9.4.5 1.5-.7.7-1.1.7-1 1.2-.6 1.2-.1 3-.7 3.5-1.2-1.1-.5-1.1-.3-3 .4-5.1 1-3.4.9-1.7.7-3.2z"/></svg>