<svg id="Layer_1" xmlns="http://www.w3.org/2000/svg" viewBox="0 0 200 200"><style>.st0{fill:#8fb2cc}</style><path id="US-VT_1_" class="st0" d="M133 177l-4.4 1-4.5 1-4.5 1-4.5 1-4.5 1-4.4 1-4.5 1-4.5 1-2.1-3.4-.2-3.3-1-4.3-1.3-5.7-1.4-6.2-2-8.4-1.3-5.7-1.2-5.1-1.6-7-3.6-3.2-1.2-.4-.7.6-1.2 3-.6.1-.7-.5-.5-2.4-.4-8.6-.6-2.6-1.5-4.3-4.4-9.5-.6-2.2-.1-3.6.4-3.8 1.3-4 .1-1.6-1.7-6-.8-5.8-4.9-7.7-1.8-11.2-2.1-5-.3-5-1.4-4 7.4-1.9 18.1-4.7 18.1-4.8 18-4.9 18-4.9-.4 1.4 2.3 4.6-2.5 9.6.8 2.7 4.2 6.7.3 1.8-.5 1-.1 3.4-.7 2.3-1.4 2.5-4.9 6.3L133 71l-5.5 3.1-.8 2.1 1.7 11.6-.2 6.8.4 3-1.3 5.7-.6 6.2-2.1 5.5-.3 6.1-.5 2.5-.1 3.8 2.2 12.3.3 6.9 1.4 11.8-.3 3.1-.6 1.8-.1 5.2.3 1.9 1 1.5 3.5 3.2 1.6 1.9z"/></svg>