<svg id="Layer_1" xmlns="http://www.w3.org/2000/svg" viewBox="0 0 200 200"><style>.st0{fill:#8fb2cc}</style><path id="US-WI_1_" class="st0" d="M87.4 40.5l-.7.5-.3-.2.1-1 .3-.6.5-.2.3.2v.6l-.2.7zm-5.6 3.4l-.3.2-.8-.5-.1-.4.2-.4.4.1.6.6v.4zm6.8 9.8l-.1.2.5 1.1 1.1-.4.5.6.7.2 1.2.5.7 1.2.7 1.2.7 1.2.7 1.2 2.7.6 2.7.6 2.7.6 2.7.5 2.7.5 2.7.5 2.7.5 2.7.5 1.5.7 1.5.7 1.5.7 1.6.7h2.3l2.1.4 2.9-.2 3 .4 4.4 1.1 1.1 1.1.2.8-.2 1.9 4.3 1.3 1.9 1.1.7.9v.9l.6 1.8-.3 1 .1 1.7-.8 1.9-.2 1 .1.8.2.5.5.2 1.5-.2 1.5-.7.7.3.2.3-.1.5-1 3.2.2 1.2.6 1.2 1 1.1 1.1.3v.8l-.3 1.6-1.1 1.3-3 1.8-.4 1.1v.9l-1.7 3.7-.8 2.2-.5 2.3.3 1.4 1.1.5.9-.3.6-1.1.9-1 1.3-1 .9-1.3 1.1-3.1 1.4-1.8.8-.2h.2l1.5-.9 1.3.1.9 1.1.9.7.2.7-.2 1.7-.6 1.8-.9 2-.7 2.9-.5 3.8.1 2.8.7 1.8-.3 1.7-1.4 1.6-1 2.1-.7 2.6-.3 2.1v1.7l.2 1.3.7 1.7v.9l-1.3 3.9-.4 1.9v1.5l-.3 1.5-1 3-.2 1.6.1 1.5.5 2.4-.1.8.1.6.4.4.1.8-.2 1.1.2.9.6.6.5 1.1.3 1.7.6 1.4.8 1.1.3 1.7-.2 2.2.1 4.2.1 1.4-2.9.2-10.1.8-10.1.7-10.1.7-10.1.6-10.1.6-10.3.5-.2-.2-.8-2.7-2.4-1.9-3.9-1.1-2.6-1.9-1.2-2.8-.9-3.1-.5-3.5.1-3 .8-2.4-.3-1.6-1.4-.8-1-1-.5-1.3-.3-1.9-1.2-8.9-1.1-4.2-1.5-1.6-3-1.8-4.5-2-2.8-1.9-1.7-2.8-3.3-3.2-2.1-1.3-2-.4-1.6-1-1.2-1.6-1.7-1-2.1-.4-2.4-1.3-2.8-2.3-.1-.2-.6-1.7.3-1 .3-3.4-.1-1.1-.7-3.1.7-1.2-.3-3.8.2-1.3 1.3-3.2v-1.6l-.6-1.8-.4-.7-2.9-1.5-.1-1.9.4-1.5 1.8-2.8 1-2.4.9-1.1 5.6-3.8 1.2-.3.8-1.1.7-.5-.2-4.4-.2-4.4-.3-4.3-.2-4.4 1.4-.4.6-1.1 1.4-1.8h.4l.7.7 1.8 1.1 1.4.1 1.8-.3 7-2.3 2.9-1.5 2.8-2.4.3-.1 1.2.4.4.2 3.6-2.8 1.2-.4h1l1.3 1 .3.6-.3 1.2-1 1.8-.4 1.5.1 1.2-.4 1.3-1.1 1.8.5.5 3.1-1.5.4-.5v-.3l-.2-.4.4-.2 2.6 1.6 1.7.9 1.4.4 1.4-.2zm-3.5-9.8l-.7.2-1.5-.1v-.4l1.5-.7.7-.2.2.2-.2 1zM82 48.3l-1.2.5-.5-.1.2-.6.6-.7 2.7-1.9h.5l.2.4-1.3.9-.5.5v.5l-.7.5zm84.7 36.9l-.6.4h-1.2l-.5-.6.4-1.8.3.3 1-.1.4.1.1.4.1 1.3zm-2.4 3.7l-.4.4-.7-.2-.2.6.3 1.4-.1.7h-.6v.2l.6.6.1.7-.3.8-.4.4h-.4l-.5.9-.6 1.8-.2 1 .3.3-.1.6-1.7 2.8-.7.3-.9-.3-.7-.7-.5-1.1-.2-.9.1-.7L158 96l.6-1.6.3-1.8.7-1.2 1.1-.6.8-1.2.6-1.7.8-.8 1 .1.5.6-.1 1.1z"/></svg>