<svg id="Layer_1" xmlns="http://www.w3.org/2000/svg" viewBox="0 0 200 200"><style>.st0{fill:#8fb2cc}</style><path id="US-WY_1_" class="st0" d="M169.7 116.6l-.6 6.6-.6 6.6-.6 6.6-.6 6.6-.6 6.6-.6 6.6-.6 6.6-.6 6.6-6.3-.6-6.2-.6-6.3-.6-6.3-.6-6.2-.6-6.2-.7-6.2-.7-6.2-.7-6.2-.7-6.2-.8-6.2-.8-6.2-.8-6.2-.8-6.2-.8-6.2-.9-6.2-.9-5-.7-5-.7-5-.7-5-.8-5-.8-5-.8-5-.8-4.9-.8.5-3.3.5-3.3.5-3.3.5-3.3.5-3.3.5-3.3.5-3.3.5-3.3.7-4.1.7-4.1.7-4.1.7-4.1.7-4.1.7-4.1.7-4.1.7-4.1.7-4.1.7-4.1.7-4.1.7-4.1.7-4.1.7-4.1.7-4.1.7-4.1.5-3.3.6-3.3.6-3.3.5-3.3 4.1.7 4.1.7 4.1.7 4.1.6 4.1.6 4.1.6 4.1.6 4.1.6 4.1.6 4.1.6 4.1.6 4.1.6 4.1.6 4.1.5 4.1.5 4.1.5 4.1.5 4.1.5 4.1.5 4.1.5 4.1.5 4.1.5 4.1.5 4.1.5 4.1.4 4.1.4 4.1.4 4.1.4 4.1.4 4.2.9 4.1.4 4.1.4-.6 6.6-.6 6.6-.6 6.6-.6 6.6-.6 6.6-.6 6.6-.6 6.6-.3 6.6z"/></svg>